<?xml version="1.0" encoding="utf-8"?>
<!-- Generator: Adobe Illustrator 23.0.1, SVG Export Plug-In . SVG Version: 6.00 Build 0)  -->
<svg version="1.1" id="Camada_1" xmlns="http://www.w3.org/2000/svg" xmlns:xlink="http://www.w3.org/1999/xlink" x="0px" y="0px"
	 viewBox="0 0 38.6 22.7" style="enable-background:new 0 0 38.6 22.7;" xml:space="preserve">
<style type="text/css">
	.st0{fill:#00FF00;}
</style>
<g>
	<path class="st0" d="M37.7,0H21.8c-0.3,0.3-0.6,0.4-0.9,0.7l-2.1,7.9C19,9,19.2,9.1,19.4,9.5h5.2v0c0.4-0.3,0.6-0.5,1-0.8l1.8-6.8
		c0.3-0.2,0.4-0.3,0.7-0.5h2.6c0.2,0.3,0.3,0.4,0.6,0.8l-4,15c0.2,0.2,0.3,0.2,0.5,0.4l7.1-4.1l0.5-0.7l3.1-11.4
		C38.2,0.7,38.1,0.5,37.7,0z"/>
	<path class="st0" d="M31.9,16.4L27,19.2c-0.1,0.1-0.2,0.3-0.3,0.4l-0.3,1.3c-0.2,0.2-0.4,0.3-0.6,0.5h-2.8
		c-0.3-0.2-0.5-0.3-0.8-0.5l-5.2-9.7c-0.3-0.2-0.5-0.3-0.8-0.4h-2.3h-3.4c-0.2-0.2-0.2-0.3-0.4-0.5L12.5,1c-0.3-0.4-0.4-0.6-0.7-1
		H6.7C6.3,0.3,6,0.6,5.6,0.9L0,21.9c0.3,0.3,0.4,0.5,0.6,0.8H6c0.3-0.3,0.5-0.4,0.9-0.7l2.6-9.6c0.2-0.1,0.3-0.2,0.5-0.4h0.5
		l5.5,10.2c0.3,0.2,0.5,0.3,0.8,0.5h6.4H32c0.4-0.3,0.7-0.5,1-0.8l1.8-6.6c-0.2-0.2-0.2-0.2-0.4-0.3L31.9,16.4z"/>
</g>
</svg>
