<?xml version="1.0" encoding="utf-8"?>
<!-- Generator: Adobe Illustrator 23.0.1, SVG Export Plug-In . SVG Version: 6.00 Build 0)  -->
<svg version="1.1" id="Camada_1" xmlns="http://www.w3.org/2000/svg" xmlns:xlink="http://www.w3.org/1999/xlink" x="0px" y="0px"
	 viewBox="0 0 165 40" style="enable-background:new 0 0 165 40;" xml:space="preserve">
<g>
	<path d="M85.6,2.3l0.2-0.8c-0.5-0.6-0.7-0.9-1.1-1.5H73.4c-1,0.8-1.7,1.3-2.7,2.1L65,23.2c-0.4,0.5-0.7,0.9-1.1,1.4l-7.5,4.3
		l-8.6,5c-0.2,0.2-0.4,0.5-0.5,0.7l-0.6,2.3c-0.4,0.3-0.7,0.5-1.1,0.9h-5c-0.5-0.3-0.9-0.6-1.5-0.9l-9.3-17.1
		c-0.5-0.3-0.9-0.5-1.3-0.8h-4h-6.1c-0.3-0.4-0.4-0.5-0.7-0.9l4.4-16.4c-0.5-0.7-0.8-1-1.3-1.7h-9c-0.7,0.6-1.2,0.9-1.9,1.5l-10,37
		c0.5,0.6,0.7,0.9,1.1,1.5h9.5c0.6-0.4,1-0.8,1.6-1.2l4.6-16.9c0.3-0.2,0.5-0.4,0.9-0.7h0.8l9.7,17.9c0.5,0.3,0.9,0.5,1.4,0.8h11.3
		h17.3l4.5-2.6c0.5-0.6,0.9-1.1,1.3-1.7l6-22.1c0.2-0.2,0.3-0.4,0.5-0.6L85.6,2.3z"/>
	<path d="M43.7,16.7c0.7-0.5,1.1-0.8,1.8-1.3l3.3-12.1c0.5-0.4,0.8-0.6,1.3-1h4.6c0.4,0.6,0.6,0.8,1,1.3L48.5,30
		c0.4,0.3,0.4,0.3,0.9,0.7l13-7.5c0.1-0.1,0.2-0.3,0.3-0.4l5.6-20.7c-0.6-0.8-0.9-1.2-1.6-2H38.7c-0.6,0.5-1,0.8-1.6,1.2l-3.8,13.9
		c0.5,0.6,0.7,0.9,1.1,1.5L43.7,16.7L43.7,16.7z"/>
	<path d="M112.5,36.9l-0.9,0.8h-5.5c-0.3-0.3-0.4-0.5-0.6-0.8l9-33.3c0.6-0.5,1.1-0.8,1.7-1.3h4c0.5,0.7,0.7,0.9,1.2,1.6L112.5,36.9
		z M127.8,25.5l6.3-23.3c-0.7-0.9-1-1.3-1.7-2.2h-27.2c-0.9,0.7-1.6,1.2-2.5,1.9l-9.8,36.3c0.6,0.7,0.8,1,1.4,1.8h16.5
		c0.9-0.3,1.7-0.6,2.6-1l13.4-11.8C127.1,26.6,127.4,26.1,127.8,25.5z"/>
	<path d="M141.3,28.8h17.6c0.6-0.9,0.8-1.1,1.4-2L149.6,0.9c-0.5-0.3-0.9-0.6-1.4-0.9h-9.1c-0.6,0.9-0.8,1.1-1.4,2l9.3,22.5
		c-0.6,0.9-0.8,1.1-1.4,2H132c-0.8,0.3-1.6,0.6-2.4,0.9l-12.4,10.9c0.3,0.8,0.3,0.8,0.6,1.7h9.6c0.7-0.3,1.3-0.5,1.9-0.7l11.1-10
		C140.7,29.1,141,28.9,141.3,28.8z"/>
	<path d="M162.8,33.1c-1.1-0.7-1.9-1.3-3-2h-8.4c-0.5,0.7-0.6,0.9-1.1,1.6l1.4,3.5c-0.5,0.7-0.6,0.9-1.1,1.6h-16.1
		c-0.2,0.2-0.4,0.4-0.6,0.6v1.1c0.2,0.2,0.4,0.4,0.6,0.6h18.7h2.7h7.8c0.5-0.7,0.6-0.9,1.1-1.6L162.8,33.1z"/>
	<path d="M99.1,0h-9c-0.7,0.6-1.2,0.9-2,1.5l-3.3,12.2l3.6,16.3c0.2,0,0.2,0,0.4,0l1.3-5.3h1.8l-2.8,11l-1.1,0l-4.9-22.1
		c0-0.7,0-1.3,0.1-2l1.4-5.2c-0.4-0.3-0.4-0.3-0.8-0.5l-11.2,7.8c-0.2,0.3-0.4,0.6-0.6,0.9l-1.6,6.1l3.3,15.3c0,0.3,0,0.7,0,1
		l-0.4,1.5c0.5,0.6,0.7,0.9,1.2,1.5h13.5c1-0.8,1.8-1.3,2.8-2.1l9.8-36.2C99.9,1,99.6,0.7,99.1,0z"/>
</g>
</svg>
