<svg width="20" height="20" viewBox="0 0 20 20" fill="none" xmlns="http://www.w3.org/2000/svg">
<circle cx="10" cy="10" r="9.5" stroke="#2E2E2E"/>
<path d="M10.5893 4C11.3202 4 11.9374 4.12466 12.4408 4.37398C12.9497 4.61789 13.3368 4.93767 13.6021 5.33333C13.8674 5.72358 14 6.14363 14 6.5935C14 7.11382 13.8998 7.5393 13.6995 7.86992C13.4992 8.20054 13.2529 8.47968 12.9606 8.70732C12.6682 8.92954 12.3732 9.14634 12.0754 9.35772C11.7831 9.56369 11.5367 9.80217 11.3364 10.0732C11.1361 10.3388 11.036 10.6829 11.036 11.1057V11.5854H9.29814V11.0244C9.29814 10.4878 9.39018 10.0461 9.57425 9.69919C9.76373 9.34688 9.99923 9.05149 10.2807 8.81301C10.5623 8.57453 10.8411 8.36043 11.1172 8.17073C11.3987 7.97561 11.6315 7.76694 11.8155 7.54472C12.005 7.32249 12.0998 7.05149 12.0998 6.73171C12.0998 6.3252 11.9401 6.01626 11.6207 5.80488C11.3012 5.58808 10.9006 5.47968 10.4188 5.47968C10.0398 5.47968 9.65816 5.56911 9.27378 5.74797C8.8894 5.92683 8.53751 6.20867 8.2181 6.5935L7 5.66667C7.471 5.11382 8.00425 4.69919 8.59977 4.42276C9.2007 4.14092 9.86388 4 10.5893 4ZM10.1995 13.2033C10.5514 13.2033 10.8465 13.3252 11.0847 13.5691C11.3229 13.8076 11.442 14.0949 11.442 14.4309C11.442 14.7724 11.3229 15.065 11.0847 15.3089C10.8465 15.5474 10.5514 15.6667 10.1995 15.6667C9.85847 15.6667 9.56883 15.5474 9.33063 15.3089C9.09783 15.065 8.98144 14.7724 8.98144 14.4309C8.98144 14.0949 9.09783 13.8076 9.33063 13.5691C9.56883 13.3252 9.85847 13.2033 10.1995 13.2033Z" fill="#2E2E2E"/>
</svg>
