<svg width="18" height="23" viewBox="0 0 18 23" fill="none" xmlns="http://www.w3.org/2000/svg">
<path d="M9.0025 11.2125C9.54458 11.2125 10.0078 11.0152 10.3922 10.6206C10.7766 10.226 10.9688 9.75159 10.9688 9.19744C10.9688 8.64331 10.7757 8.16979 10.3897 7.77688C10.0037 7.38396 9.5396 7.1875 8.9975 7.1875C8.45542 7.1875 7.99219 7.38481 7.60781 7.77943C7.22344 8.17404 7.03125 8.64841 7.03125 9.20256C7.03125 9.75669 7.22427 10.2302 7.61032 10.6231C7.99634 11.016 8.4604 11.2125 9.0025 11.2125ZM9 20.7288C11.4937 18.4096 13.3359 16.306 14.5266 14.4181C15.7172 12.5302 16.3125 10.8675 16.3125 9.43C16.3125 7.17236 15.6066 5.32378 14.1949 3.88427C12.7832 2.44476 11.0516 1.725 9 1.725C6.94843 1.725 5.21679 2.44476 3.80509 3.88427C2.39336 5.32378 1.6875 7.17236 1.6875 9.43C1.6875 10.8675 2.29688 12.5302 3.51562 14.4181C4.73438 16.306 6.5625 18.4096 9 20.7288ZM9 23C5.98125 20.3742 3.72656 17.9352 2.23594 15.6831C0.745312 13.431 0 11.3467 0 9.43C0 6.555 0.904687 4.26458 2.71406 2.55875C4.52344 0.852917 6.61875 0 9 0C11.3812 0 13.4766 0.852917 15.2859 2.55875C17.0953 4.26458 18 6.555 18 9.43C18 11.3467 17.2547 13.431 15.7641 15.6831C14.2734 17.9352 12.0188 20.3742 9 23Z" fill="url(#paint0_linear_76_471)"/>
<defs>
<linearGradient id="paint0_linear_76_471" x1="9" y1="0" x2="9" y2="23" gradientUnits="userSpaceOnUse">
<stop stop-color="#FF00A4"/>
<stop offset="1" stop-color="#CA0082"/>
</linearGradient>
</defs>
</svg>
