<svg width="96" height="88" viewBox="0 0 96 88" fill="none" xmlns="http://www.w3.org/2000/svg">
<path d="M13.5176 46.7254C13.5176 43.0792 13.5176 39.4359 13.5176 35.6411C12.9441 35.6025 12.4746 35.5431 12.0021 35.5401C9.92491 35.5282 7.84475 35.5817 5.76757 35.5193C2.85832 35.4301 0.870285 33.6234 0.852455 30.8389C0.79005 22.3281 0.798965 13.8143 0.849483 5.30352C0.864341 2.78653 2.40069 1.14619 4.86419 0.742041C5.54172 0.63209 6.24006 0.593459 6.92948 0.593459C21.8769 0.584544 36.8213 0.58751 51.7687 0.58751C56.3065 0.58751 57.9022 2.19815 57.9022 6.77449C57.9022 14.2482 57.9022 21.7219 57.9022 29.1926C57.9022 33.9711 56.354 35.5371 51.6231 35.5371C43.2579 35.5371 34.8957 35.5133 26.5305 35.5787C25.7579 35.5847 24.804 35.9888 24.2483 36.5296C20.7388 39.9292 17.3214 43.4179 13.8713 46.8769C13.7524 46.8264 13.6335 46.7759 13.5176 46.7254ZM16.6438 39.118C16.7627 39.1922 16.8815 39.2665 17.0004 39.3408C18.6527 37.6589 20.3881 36.0482 21.9363 34.2771C23.2379 32.7854 24.6613 32.2386 26.6791 32.2683C35.2374 32.3931 43.8017 32.3248 52.3631 32.3188C54.2828 32.3158 54.6394 31.9711 54.6394 30.0871C54.6483 22.0696 54.6483 14.0521 54.6394 6.03455C54.6364 4.11784 54.3214 3.81472 52.366 3.81472C37.0234 3.81175 21.6837 3.81175 6.3411 3.81472C4.34415 3.81472 4.03807 4.12675 4.03807 6.16531C4.03212 13.9362 4.03509 21.7041 4.03509 29.4749C4.03509 32.1524 4.20745 32.3218 6.90274 32.3218C10.1032 32.3218 13.3066 32.3218 16.6379 32.3218C16.6379 33.5699 16.6379 34.6456 16.6379 35.7243C16.6438 36.8535 16.6438 37.9858 16.6438 39.118Z" fill="url(#paint0_linear_48_58)"/>
<path d="M83.2146 46.5737C83.2146 50.4428 83.2146 54.1663 83.2146 57.8898C83.0779 57.9641 82.9413 58.0383 82.8046 58.1126C81.3514 56.5882 79.9131 55.0459 78.4362 53.5422C76.4928 51.5631 74.4869 49.6494 72.5761 47.6405C71.8362 46.862 71.0903 46.541 69.9997 46.547C61.581 46.5945 53.1653 46.5737 44.7466 46.5737C40.4734 46.5737 38.8419 44.9363 38.8419 40.6512C38.8419 40.0182 38.8419 39.3883 38.8419 38.681C39.9622 38.681 40.9251 38.681 42.0959 38.681C42.0959 39.6022 42.084 40.4759 42.0989 41.3495C42.1286 43.0345 42.4406 43.3614 44.1047 43.3911C45.442 43.4149 46.7792 43.397 48.1165 43.397C55.7417 43.397 63.367 43.4238 70.9922 43.3703C72.2225 43.3614 73.1259 43.6585 73.9758 44.5827C75.5478 46.2944 77.2446 47.8931 78.8968 49.5305C79.194 49.8247 79.5238 50.0892 80.1033 50.6033C80.1033 48.0358 80.1033 45.7922 80.1033 43.394C83.491 43.394 86.6974 43.397 89.9038 43.394C92.5694 43.3911 92.7002 43.2633 92.7002 40.6393C92.7002 32.916 92.7031 25.1897 92.7002 17.4664C92.7002 15.2079 92.3198 14.8335 90.0078 14.8335C80.9948 14.8305 71.9848 14.8335 62.9718 14.8335C62.3893 14.8335 61.8098 14.8335 61.1472 14.8335C61.1472 13.7637 61.1472 12.8544 61.1472 11.8321C61.6821 11.8054 62.1605 11.7578 62.6419 11.7578C71.9016 11.7549 81.1612 11.7519 90.4209 11.7578C94.2068 11.7608 95.9185 13.4903 95.9214 17.3059C95.9274 25.1778 95.9274 33.0527 95.9214 40.9246C95.9185 44.8918 94.2157 46.5678 90.201 46.5707C87.9307 46.5767 85.6633 46.5737 83.2146 46.5737Z" fill="url(#paint1_linear_48_58)"/>
<path d="M68.9774 71.1879C72.0946 72.124 73.521 70.4985 74.2788 67.7527C74.5017 66.9503 74.8315 66.1391 75.3011 65.4586C75.6785 64.9118 76.3679 64.1778 76.8582 64.2194C77.4585 64.2699 78.2044 64.9356 78.5253 65.5299C79.3395 67.0484 79.8923 68.7096 80.6827 70.2429C80.9086 70.6798 81.5802 71.1196 82.0734 71.1463C83.9486 71.2533 85.8415 71.1106 87.7136 71.2355C88.3466 71.2771 89.2827 71.702 89.4699 72.1864C89.6541 72.6648 89.2351 73.6069 88.7894 74.0556C87.4313 75.4225 85.9693 76.6944 84.4775 77.9187C83.7435 78.519 83.6039 79.0955 83.8921 79.9692C84.4805 81.7492 85.0689 83.5411 85.4582 85.3716C85.5949 86.0165 85.3601 87.0149 84.9084 87.431C84.5399 87.7668 83.4939 87.6895 82.9233 87.4191C81.1849 86.5959 79.5594 85.5291 77.824 84.6971C77.3099 84.4504 76.4749 84.4563 75.9548 84.703C74.261 85.5113 72.686 86.5692 70.9803 87.3448C70.3206 87.6449 69.2627 87.7311 68.7129 87.3894C68.3117 87.1398 68.2345 85.9808 68.386 85.3122C68.7812 83.5322 69.3459 81.7878 69.9105 80.0524C70.1779 79.2352 70.0531 78.6884 69.3667 78.1267C67.9492 76.9678 66.5258 75.794 65.2747 74.4686C64.7517 73.9129 64.3802 72.9293 64.4397 72.1804C64.5229 71.1017 65.6016 71.1909 66.4485 71.1909C67.2925 71.1879 68.1334 71.1879 68.9774 71.1879ZM70.5375 74.2666C70.4989 74.3706 70.4602 74.4746 70.4186 74.5786C71.1824 75.2412 71.9044 75.9634 72.7246 76.5518C73.729 77.2709 73.9519 78.1119 73.5478 79.253C73.1852 80.2723 72.9386 81.3332 72.6385 82.3762C72.7068 82.498 72.7781 82.6199 72.8465 82.7387C75.5774 79.9751 78.3084 80.1177 81.1017 82.608C80.8729 81.3153 80.5757 80.2366 80.2281 79.1757C79.8744 78.097 80.127 77.2709 81.0393 76.5755C81.8773 75.9366 82.647 75.2086 83.7405 74.2666C82.5133 74.2666 81.7287 74.1982 80.9561 74.2814C79.5594 74.4359 78.7214 73.8832 78.2549 72.5608C77.9369 71.6604 77.4525 70.8194 76.9057 69.6664C76.3441 70.8373 75.8211 71.6753 75.5328 72.5846C75.093 73.9753 74.2045 74.4122 72.8405 74.2784C72.0798 74.2071 71.3042 74.2666 70.5375 74.2666Z" fill="url(#paint2_linear_48_58)"/>
<path d="M40.4529 71.188C43.5434 72.0765 45.0322 70.5491 45.7335 67.7409C45.8999 67.0812 46.2981 66.4809 46.5655 65.845C46.9132 65.0129 47.2045 64.1482 48.3367 64.1185C49.4867 64.0887 49.7928 64.9416 50.1494 65.7737C50.7912 67.2714 51.3885 68.7958 52.1433 70.2341C52.3751 70.6739 53.0467 71.1137 53.54 71.1434C55.4151 71.2504 57.3051 71.1108 59.1802 71.2326C59.8072 71.2742 60.7463 71.7051 60.9186 72.1805C61.0969 72.6798 60.6987 73.6188 60.253 74.0705C58.8593 75.4731 57.2754 76.6826 55.8757 78.0793C55.4983 78.4567 55.2755 79.2828 55.3943 79.8088C55.7866 81.5383 56.4671 83.2024 56.8296 84.9379C56.9901 85.7075 56.895 86.7535 56.476 87.3716C55.852 88.2928 54.8951 87.7371 54.0957 87.2973C52.6247 86.4861 51.0943 85.761 49.6888 84.8487C48.7022 84.2068 47.9503 84.293 46.9994 84.8873C45.4898 85.8264 43.9297 86.709 42.3101 87.4281C41.698 87.7015 40.6728 87.7253 40.1765 87.3776C39.7753 87.0953 39.6683 86.0344 39.808 85.4044C40.2062 83.6273 40.7173 81.8592 41.3533 80.1505C41.7218 79.1609 41.4543 78.6112 40.7203 78.005C39.3474 76.8698 37.9537 75.7376 36.7413 74.4449C36.2183 73.8863 35.826 72.8997 35.9003 72.1598C36.0043 71.1197 37.0771 71.1761 37.9329 71.1821C38.7709 71.1939 39.6119 71.188 40.4529 71.188ZM52.4524 82.7626C52.5178 82.6081 52.5802 82.4536 52.6455 82.299C52.3692 81.36 52.1463 80.4001 51.7986 79.4878C51.3024 78.1892 51.5787 77.2115 52.7139 76.3884C53.4717 75.8386 54.1343 75.1522 55.1298 74.2666C53.8936 74.2666 53.1032 74.2013 52.3306 74.2815C50.9844 74.4212 50.1969 73.8595 49.7393 72.6085C49.3946 71.6694 48.8983 70.7868 48.3604 69.6457C47.7512 70.9562 47.2342 71.9636 46.8122 73.0096C46.4467 73.916 45.8583 74.3201 44.8806 74.2756C43.9208 74.231 42.955 74.2666 41.9922 74.2666C41.8555 74.3736 41.7188 74.4836 41.5851 74.5906C45.469 76.3557 45.8642 79.1015 44.0218 82.6437C46.9816 80.1267 49.7185 79.9722 52.4524 82.7626Z" fill="url(#paint3_linear_48_58)"/>
<path d="M11.9723 71.1908C15.1341 72.1566 16.4684 70.4122 17.238 67.711C17.4936 66.8166 17.8859 65.928 18.397 65.1554C18.7031 64.6918 19.3598 64.1955 19.8561 64.1985C20.3523 64.2015 21.0626 64.6978 21.3033 65.1703C22.1145 66.7512 22.7861 68.4034 23.4518 70.0527C23.7905 70.8877 24.2541 71.2592 25.214 71.2146C27.0415 71.1284 28.8839 71.1076 30.7056 71.2413C31.3266 71.2859 32.1795 71.7406 32.4262 72.2517C32.6223 72.6529 32.2092 73.586 31.7873 74.002C30.3846 75.3957 28.8899 76.7032 27.3625 77.9602C26.679 78.5248 26.5453 79.0598 26.8097 79.874C27.3862 81.66 27.9717 83.4519 28.3669 85.2794C28.5095 85.9421 28.3491 86.9911 27.9033 87.3655C27.4813 87.7221 26.4056 87.6567 25.8023 87.3774C24.0996 86.5929 22.5246 85.535 20.8278 84.7386C20.2721 84.48 19.3895 84.48 18.8338 84.7416C17.137 85.538 15.568 86.6107 13.8593 87.3804C13.2085 87.6746 12.1268 87.7102 11.6008 87.3477C11.2056 87.0743 11.1848 85.9272 11.3393 85.2497C11.7494 83.4727 12.421 81.7551 12.8222 79.978C12.944 79.4461 12.7003 78.611 12.314 78.2247C10.9887 76.8964 9.4434 75.782 8.15668 74.421C7.64258 73.8772 7.30381 72.8579 7.41971 72.1418C7.48508 71.7346 8.60242 71.3513 9.29185 71.2265C10.1655 71.069 11.0808 71.1908 11.9723 71.1908ZM13.259 74.0525C13.2857 74.2189 13.3125 74.3883 13.3392 74.5547C14.0405 75.1639 14.6913 75.8504 15.458 76.3615C16.7091 77.1965 16.9052 78.2217 16.3941 79.559C16.0464 80.4683 15.8354 81.4311 15.5412 82.4593C17.143 81.7313 18.5218 80.605 19.8977 80.6139C21.2617 80.6228 22.6227 81.7699 24.1531 82.498C23.8381 81.3925 23.6301 80.3792 23.2586 79.4342C22.7653 78.1802 23.0357 77.2708 24.1115 76.4714C24.896 75.889 25.5765 75.1669 26.572 74.2665C25.4963 74.2665 24.8484 74.1981 24.2214 74.2813C22.6108 74.4953 21.5915 73.898 21.0685 72.323C20.7921 71.488 20.3107 70.7213 19.9214 69.9249C19.8026 69.8922 19.6807 69.8595 19.5619 69.8239C18.8308 73.2294 17.1875 75.3066 13.259 74.0525Z" fill="url(#paint4_linear_48_58)"/>
<path d="M72.0919 51.3493C72.0919 52.4726 72.0919 53.3997 72.0919 54.5289C71.4678 54.5289 70.8883 54.5289 70.3118 54.5289C61.5484 54.5289 52.785 54.5052 44.0216 54.5706C43.246 54.5765 42.2862 54.9777 41.7305 55.5185C38.1883 58.9656 34.7352 62.5049 30.9256 66.3413C30.9256 62.172 30.9256 58.4277 30.9256 54.526C28.2957 54.526 25.8797 54.5587 23.4697 54.5171C20.7298 54.4695 18.7032 53.0461 18.4238 50.85C18.2515 49.4979 18.3911 48.1072 18.3911 46.6511C19.3658 46.6511 20.2781 46.6511 21.3955 46.6511C21.3955 47.5485 21.3717 48.4222 21.4014 49.2929C21.4549 50.8114 21.975 51.3315 23.4905 51.3404C26.9525 51.3582 30.4144 51.3463 34.0458 51.3463C34.0458 53.6553 34.0458 55.9018 34.0458 58.612C35.2523 57.4412 36.1497 56.5764 37.0383 55.7057C38.4855 54.2823 39.6949 52.2883 41.4304 51.584C43.2193 50.856 45.5194 51.3552 47.5936 51.3522C55.1683 51.3433 62.746 51.3493 70.3208 51.3493C70.8527 51.3493 71.3935 51.3493 72.0919 51.3493Z" fill="url(#paint5_linear_48_58)"/>
<path d="M76.8436 40.1758C77.2002 37.1298 75.6995 33.5876 79.0396 31.5996C81.6398 30.0513 84.7898 30.0603 87.3959 31.5788C90.7509 33.5341 89.3305 37.0912 89.7019 40.1788C85.3514 40.1758 81.1911 40.1758 76.8436 40.1758ZM80.2551 36.9783C82.2401 36.9783 84.2371 36.9783 86.2251 36.9783C86.6293 34.4524 86.2102 33.9264 83.8508 33.9026C83.4555 33.8996 83.0603 33.8996 82.6651 33.9026C80.2996 33.9204 79.8836 34.4345 80.2551 36.9783Z" fill="url(#paint6_linear_48_58)"/>
<path d="M87.9369 22.8333C87.9309 25.5048 85.9251 27.5493 83.2892 27.576C80.6385 27.6028 78.4335 25.4275 78.4454 22.8006C78.4573 20.1321 80.6207 18.04 83.3189 18.0816C85.9994 18.1232 87.9428 20.1261 87.9369 22.8333ZM82.6355 24.5123C82.8762 24.539 83.1169 24.5687 83.3576 24.5955C83.833 24.0428 84.5462 23.5554 84.7216 22.9195C84.9533 22.0785 84.3947 21.395 83.4348 21.294C82.4334 21.19 81.6905 21.6684 81.744 22.6728C81.7826 23.3028 82.3234 23.9001 82.6355 24.5123Z" fill="url(#paint7_linear_48_58)"/>
<path d="M73.6432 27.6622C73.6432 28.6666 73.6432 29.5879 73.6432 30.6279C69.4918 30.6279 65.385 30.6279 61.1682 30.6279C61.1682 29.6503 61.1682 28.6993 61.1682 27.6622C65.3345 27.6622 69.4502 27.6622 73.6432 27.6622Z" fill="url(#paint8_linear_48_58)"/>
<path d="M73.6105 24.2924C69.4532 24.2924 65.3672 24.2924 61.1682 24.2924C61.1682 23.3385 61.1682 22.4232 61.1682 21.3713C65.2542 21.3713 69.3759 21.3713 73.6105 21.3713C73.6105 22.2746 73.6105 23.1929 73.6105 24.2924Z" fill="url(#paint9_linear_48_58)"/>
<path d="M64.2941 33.9799C67.4767 33.9799 70.5138 33.9799 73.634 33.9799C73.634 34.9872 73.634 35.9055 73.634 36.9485C70.5554 36.9485 67.4827 36.9485 64.2941 36.9485C64.2941 36.0095 64.2941 35.0586 64.2941 33.9799Z" fill="url(#paint10_linear_48_58)"/>
<path d="M51.5074 10.2216C51.5074 11.2409 51.5074 12.1591 51.5074 13.1873C42.0546 13.1873 32.6404 13.1873 23.1252 13.1873C23.1252 12.2096 23.1252 11.2557 23.1252 10.2216C32.6018 10.2216 42.016 10.2216 51.5074 10.2216Z" fill="url(#paint11_linear_48_58)"/>
<path d="M19.7286 29.0291C15.5177 29.0291 11.3901 29.0291 7.08122 29.0291C7.35759 25.995 6.04412 22.539 9.23865 20.542C11.827 18.9255 14.8729 19.0978 17.6128 20.4143C19.7999 21.4633 20.3051 24.0248 19.7286 29.0291ZM16.5043 25.9653C16.8372 23.2819 16.436 22.8035 13.9725 22.8005C13.6753 22.8005 13.3811 22.8005 13.084 22.8005C10.5373 22.8035 10.0588 23.3829 10.5402 25.9653C12.4807 25.9653 14.439 25.9653 16.5043 25.9653Z" fill="url(#paint12_linear_48_58)"/>
<path d="M51.5044 16.5988C51.5044 17.6121 51.5044 18.5244 51.5044 19.5347C42.0396 19.5347 32.6552 19.5347 23.1459 19.5347C23.1459 18.5868 23.1459 17.6388 23.1459 16.5988C32.5898 16.5988 42.0099 16.5988 51.5044 16.5988Z" fill="url(#paint13_linear_48_58)"/>
<path d="M23.0948 25.9327C23.0948 24.8867 23.0948 23.9209 23.0948 22.8749C29.9296 22.8749 36.6872 22.8749 43.5368 22.8749C43.5368 23.8823 43.5368 24.8481 43.5368 25.9327C36.7852 25.9327 30.0337 25.9327 23.0948 25.9327Z" fill="url(#paint14_linear_48_58)"/>
<path d="M8.79846 11.6658C8.82224 8.97348 10.8014 7.00326 13.4848 6.99732C16.1711 6.99138 18.3375 9.14881 18.2899 11.7787C18.2394 14.3789 16.1266 16.462 13.5204 16.4769C10.8192 16.4918 8.77469 14.4086 8.79846 11.6658ZM15.3004 11.9897C15.2886 11.749 15.2796 11.5083 15.2678 11.2676C14.6407 10.911 14.0464 10.3404 13.3837 10.2483C12.4774 10.1235 11.9484 10.8129 11.9662 11.7282C11.987 12.7059 12.5635 13.4131 13.5323 13.214C14.1772 13.0833 14.7121 12.4176 15.3004 11.9897Z" fill="url(#paint15_linear_48_58)"/>
<defs>
<linearGradient id="paint0_linear_48_58" x1="48.3672" y1="0.587036" x2="48.3672" y2="87.8701" gradientUnits="userSpaceOnUse">
<stop stop-color="#FF00A4"/>
<stop offset="1" stop-color="#CA0082"/>
</linearGradient>
<linearGradient id="paint1_linear_48_58" x1="48.3672" y1="0.587036" x2="48.3672" y2="87.8701" gradientUnits="userSpaceOnUse">
<stop stop-color="#FF00A4"/>
<stop offset="1" stop-color="#CA0082"/>
</linearGradient>
<linearGradient id="paint2_linear_48_58" x1="48.3672" y1="0.587036" x2="48.3672" y2="87.8701" gradientUnits="userSpaceOnUse">
<stop stop-color="#FF00A4"/>
<stop offset="1" stop-color="#CA0082"/>
</linearGradient>
<linearGradient id="paint3_linear_48_58" x1="48.3672" y1="0.587036" x2="48.3672" y2="87.8701" gradientUnits="userSpaceOnUse">
<stop stop-color="#FF00A4"/>
<stop offset="1" stop-color="#CA0082"/>
</linearGradient>
<linearGradient id="paint4_linear_48_58" x1="48.3672" y1="0.587036" x2="48.3672" y2="87.8701" gradientUnits="userSpaceOnUse">
<stop stop-color="#FF00A4"/>
<stop offset="1" stop-color="#CA0082"/>
</linearGradient>
<linearGradient id="paint5_linear_48_58" x1="48.3672" y1="0.587036" x2="48.3672" y2="87.8701" gradientUnits="userSpaceOnUse">
<stop stop-color="#FF00A4"/>
<stop offset="1" stop-color="#CA0082"/>
</linearGradient>
<linearGradient id="paint6_linear_48_58" x1="48.3672" y1="0.587036" x2="48.3672" y2="87.8701" gradientUnits="userSpaceOnUse">
<stop stop-color="#FF00A4"/>
<stop offset="1" stop-color="#CA0082"/>
</linearGradient>
<linearGradient id="paint7_linear_48_58" x1="48.3672" y1="0.587036" x2="48.3672" y2="87.8701" gradientUnits="userSpaceOnUse">
<stop stop-color="#FF00A4"/>
<stop offset="1" stop-color="#CA0082"/>
</linearGradient>
<linearGradient id="paint8_linear_48_58" x1="48.3672" y1="0.587036" x2="48.3672" y2="87.8701" gradientUnits="userSpaceOnUse">
<stop stop-color="#FF00A4"/>
<stop offset="1" stop-color="#CA0082"/>
</linearGradient>
<linearGradient id="paint9_linear_48_58" x1="48.3672" y1="0.587036" x2="48.3672" y2="87.8701" gradientUnits="userSpaceOnUse">
<stop stop-color="#FF00A4"/>
<stop offset="1" stop-color="#CA0082"/>
</linearGradient>
<linearGradient id="paint10_linear_48_58" x1="48.3672" y1="0.587036" x2="48.3672" y2="87.8701" gradientUnits="userSpaceOnUse">
<stop stop-color="#FF00A4"/>
<stop offset="1" stop-color="#CA0082"/>
</linearGradient>
<linearGradient id="paint11_linear_48_58" x1="48.3672" y1="0.587036" x2="48.3672" y2="87.8701" gradientUnits="userSpaceOnUse">
<stop stop-color="#FF00A4"/>
<stop offset="1" stop-color="#CA0082"/>
</linearGradient>
<linearGradient id="paint12_linear_48_58" x1="48.3672" y1="0.587036" x2="48.3672" y2="87.8701" gradientUnits="userSpaceOnUse">
<stop stop-color="#FF00A4"/>
<stop offset="1" stop-color="#CA0082"/>
</linearGradient>
<linearGradient id="paint13_linear_48_58" x1="48.3672" y1="0.587036" x2="48.3672" y2="87.8701" gradientUnits="userSpaceOnUse">
<stop stop-color="#FF00A4"/>
<stop offset="1" stop-color="#CA0082"/>
</linearGradient>
<linearGradient id="paint14_linear_48_58" x1="48.3672" y1="0.587036" x2="48.3672" y2="87.8701" gradientUnits="userSpaceOnUse">
<stop stop-color="#FF00A4"/>
<stop offset="1" stop-color="#CA0082"/>
</linearGradient>
<linearGradient id="paint15_linear_48_58" x1="48.3672" y1="0.587036" x2="48.3672" y2="87.8701" gradientUnits="userSpaceOnUse">
<stop stop-color="#FF00A4"/>
<stop offset="1" stop-color="#CA0082"/>
</linearGradient>
</defs>
</svg>
