<svg width="93" height="87" viewBox="0 0 93 87" fill="none" xmlns="http://www.w3.org/2000/svg">
<path d="M91.8146 20.6937C88.7632 17.9975 85.6742 15.2355 82.6887 12.5652C79.8773 10.0522 76.9717 7.45459 74.0991 4.91341C73.4263 4.31921 72.5417 3.85184 71.6688 3.63342C69.8479 3.17544 67.9893 2.74329 66.1942 2.32524C64.2345 1.86961 62.2112 1.39755 60.2326 0.894953C58.8728 0.549709 57.8988 0.894952 56.9718 2.05281C54.4004 5.2657 50.6597 7.10699 46.7001 7.10699C46.686 7.10699 46.6696 7.10699 46.6531 7.10699C42.7312 7.0929 39.047 5.26569 36.5461 2.09038C35.6074 0.899642 34.584 0.552059 33.123 0.925486C31.2056 1.41634 29.2435 1.87197 27.3425 2.3135C25.5427 2.73155 23.6818 3.1637 21.8585 3.62638C20.9551 3.85419 20.0187 4.35679 19.287 5.00266C16.3533 7.59786 13.3842 10.2494 10.514 12.8165C7.632 15.3952 4.65119 18.0609 1.70332 20.6655C0.289377 21.9149 0.117632 23.1644 1.14809 24.7145C3.1055 27.6549 5.04879 30.6776 6.92856 33.5992C7.77787 34.9215 8.62953 36.2438 9.48354 37.5637C10.8881 39.7314 11.5915 39.9381 13.9112 38.8648C15.3158 38.2142 16.7156 37.5613 18.1954 36.8708L19.2988 36.3565V83.1853C19.2988 86.2831 19.8023 86.788 22.8819 86.788C30.8268 86.788 38.7717 86.788 46.7166 86.788C54.6615 86.788 62.6064 86.788 70.5513 86.788C73.671 86.788 74.1791 86.2878 74.1791 83.2275V68.9762C74.1791 58.4592 74.1791 47.9398 74.1838 37.4227C74.1838 37.0892 74.2003 36.7511 74.2238 36.3729C74.6285 36.5585 75.0261 36.7393 75.419 36.9201C76.9529 37.62 78.4021 38.2823 79.8278 38.9916C81.5359 39.8395 82.7969 39.4942 83.7968 37.9042C86.5588 33.5194 89.422 29.0946 92.3063 24.752C93.3556 23.1714 93.2027 21.9196 91.8146 20.6937ZM69.9514 82.3703H23.5336V34.433C23.5336 32.7866 23.3736 31.664 22.5831 31.1614C21.7997 30.6635 20.7386 30.9829 19.2823 31.6616C17.6308 32.432 15.9769 33.2 14.2735 33.9914L12.7255 34.7101L5.19936 23.0845C5.43933 22.9648 5.68401 22.8215 5.90516 22.6266C9.06477 19.8176 12.215 16.997 15.3675 14.1786C17.4473 12.3186 19.527 10.4585 21.6091 8.60071C21.675 8.542 21.7432 8.48093 21.8091 8.41752C22.0773 8.16857 22.3831 7.88908 22.6231 7.82802C26.2438 6.90971 29.841 6.05248 33.3206 5.27979C33.4359 5.30093 33.7159 5.45828 33.8617 5.62973C36.9084 9.1996 41.5714 11.2593 46.6578 11.2828C51.7866 11.3157 56.4919 9.26536 59.6021 5.68844C59.7456 5.52404 60.2961 5.35025 60.6043 5.41601C63.8651 6.10415 67.0529 6.87449 70.3067 7.66831C70.7348 7.77165 71.1513 7.97833 71.4501 8.22963C72.3746 9.00467 73.2898 9.83372 74.1744 10.6322C74.5061 10.9329 74.8379 11.2335 75.1719 11.5318L88.2056 23.209L80.7689 34.7125L78.9597 33.867C77.2611 33.0731 75.6001 32.2981 73.9368 31.5254C72.9181 31.0533 71.763 30.6423 70.916 31.1825C70.0737 31.718 69.9608 32.9181 69.9585 34.0196C69.9538 45.4902 69.9538 56.9608 69.9561 68.4313L69.9514 82.3703Z" fill="url(#paint0_linear_46_242)"/>
<defs>
<linearGradient id="paint0_linear_46_242" x1="46.7396" y1="0.767334" x2="46.7396" y2="86.788" gradientUnits="userSpaceOnUse">
<stop stop-color="#00FF00"/>
<stop offset="1" stop-color="#0FDA0F"/>
</linearGradient>
</defs>
</svg>
