<svg width="112" height="97" viewBox="0 0 112 97" fill="none" xmlns="http://www.w3.org/2000/svg">
<path d="M20.5961 53.1214C21.3972 52.0025 22.1129 50.8622 22.9648 49.8341C27.2054 44.7069 32.6263 41.6066 39.2115 40.6079C44.3467 39.8281 49.2389 40.6586 53.8667 43.0139C55.1352 43.6601 56.481 43.9459 57.8964 43.9459C64.2279 43.9432 70.5568 43.9779 76.8883 43.9298C79.3638 43.9111 81.5588 44.536 83.4815 46.197C83.8127 45.8846 84.1411 45.5828 84.4616 45.2731C88.6755 41.2007 92.8814 37.1257 97.1006 33.0586C100.383 29.8942 105.536 29.8408 108.88 32.9251C112.223 36.0094 112.562 41.158 109.694 44.6776C102.741 53.2148 95.7921 61.7548 88.8677 70.3188C87.1533 72.4418 85.0037 73.4752 82.2772 73.4672C72.5542 73.4432 62.834 73.4806 53.111 73.4459C49.6902 73.4325 46.8275 74.6128 44.4696 77.0723C44.2746 77.2752 44.2292 77.4435 44.2906 77.7319C44.9315 80.7014 44.1918 83.2783 42.0422 85.4333C38.5439 88.9369 35.035 92.4351 31.5368 95.9387C30.2229 97.2552 28.3109 97.2979 26.9971 95.9868C21.4239 90.427 15.8588 84.8565 10.291 79.2887C7.27611 76.2738 4.26123 73.2589 1.24367 70.2467C-0.3292 68.6765 -0.33187 66.8713 1.23566 65.3038C4.61907 61.9231 8.00514 58.5423 11.3805 55.1536C13.9601 52.5633 16.9537 51.8289 20.4092 53.0867C20.4572 53.1027 20.5053 53.116 20.556 53.1241C20.5854 53.1267 20.6201 53.1214 20.5961 53.1214ZM41.4146 73.2215C41.5294 73.1761 41.5481 73.1735 41.5588 73.1628C41.6336 73.096 41.711 73.0293 41.7805 72.9598C44.7126 70.001 48.2669 68.6151 52.4274 68.6258C62.4521 68.6525 72.4768 68.6311 82.4988 68.6391C83.4922 68.6391 84.2933 68.3 84.9182 67.5282C87.4337 64.4252 89.9493 61.3222 92.4675 58.2219C96.9538 52.6995 101.44 47.1744 105.94 41.66C107.254 40.0524 107.08 37.7185 105.504 36.3726C104.012 35.0988 101.867 35.1602 100.425 36.5488C95.736 41.0672 91.0548 45.5989 86.3629 50.1172C86.1386 50.3335 86.0985 50.5311 86.1573 50.8248C87.2094 56.1256 83.3026 61.0311 77.9004 61.0792C71.454 61.138 65.005 61.0979 58.5586 61.0872C57.194 61.0845 56.1553 60.0377 56.1419 58.7025C56.1312 57.386 57.178 56.3339 58.5426 56.3045C59.1301 56.2912 59.7176 56.3018 60.3051 56.3018C66.0651 56.3018 71.8225 56.3045 77.5826 56.2965C79.7056 56.2938 81.3746 54.8278 81.5028 52.8811C81.6603 50.5231 79.9165 48.7553 77.4571 48.7579C70.992 48.766 64.527 48.766 58.0646 48.7633C55.8855 48.7633 53.7866 48.3787 51.8345 47.3747C48.1093 45.4573 44.1705 44.7069 40.0313 45.3585C33.3099 46.4187 28.1854 49.8715 24.7326 55.7704C24.5056 56.1576 24.5884 56.3686 24.8768 56.6543C29.1708 60.9323 33.4541 65.2183 37.7375 69.507C38.9712 70.7434 40.1916 71.9878 41.4146 73.2215ZM29.2723 91.3696C29.3177 91.3296 29.3844 91.2788 29.4432 91.2201C32.5542 88.1144 35.6786 85.0194 38.7682 81.8924C40.0981 80.5438 40.0313 78.6158 38.6721 77.2539C32.3753 70.949 26.0758 64.6469 19.771 58.3474C18.345 56.9214 16.4196 56.9374 14.9856 58.3661C12.4193 60.9243 9.8584 63.4906 7.2868 66.0462C6.72067 66.6096 6.11717 67.1357 5.55905 67.6484C13.5356 75.6303 21.3999 83.4946 29.2723 91.3696Z" fill="url(#paint0_linear_46_256)"/>
<path d="M17.6854 68.6418C16.1526 68.6311 14.9803 67.4188 14.9883 65.8539C14.9963 64.3558 16.222 63.1595 17.7388 63.1622C19.2716 63.1675 20.484 64.4012 20.4653 65.9314C20.4466 67.4775 19.2395 68.6525 17.6854 68.6418Z" fill="url(#paint1_linear_46_256)"/>
<path d="M66.4176 35.5047L65.3067 34.8611C64.6738 34.4953 49.813 25.7604 48.4591 13.9972C47.9811 9.83942 48.7956 6.46135 50.8758 3.95918C53.7812 0.466285 58.0806 0.132483 58.2622 0.119131C61.966 -0.0597865 64.6632 1.64927 66.4176 3.96985C68.1667 1.65194 70.8398 -0.0624595 74.5276 0.116458L74.573 0.119131C74.7546 0.132483 79.054 0.466285 81.9594 3.95918C84.0423 6.46135 84.8541 9.83942 84.3761 13.9972C83.0249 25.7604 68.1614 34.4953 67.5285 34.8611L66.4176 35.5047ZM58.5639 4.54133C58.3156 4.56803 55.8428 4.88314 54.2539 6.82987C52.9988 8.36535 52.5315 10.6058 52.8626 13.4925C53.7732 21.405 63.1544 28.1931 66.4176 30.3295C69.6808 28.1931 79.0646 21.405 79.9726 13.4925C80.3037 10.6058 79.8364 8.36535 78.5813 6.82987C76.9897 4.88581 74.5196 4.56803 74.2713 4.54133C70.5113 4.39445 69.0853 7.80457 68.6447 9.28397C68.3483 10.2774 67.4537 10.9423 66.4203 10.9423C65.3868 10.9423 64.4922 10.2774 64.1958 9.28664C63.7499 7.80457 62.3345 4.39712 58.5639 4.54133Z" fill="url(#paint2_linear_46_256)"/>
<defs>
<linearGradient id="paint0_linear_46_256" x1="55.8492" y1="0.103638" x2="55.8492" y2="96.9484" gradientUnits="userSpaceOnUse">
<stop stop-color="#00FF00"/>
<stop offset="1" stop-color="#0FDA0F"/>
</linearGradient>
<linearGradient id="paint1_linear_46_256" x1="55.8492" y1="0.103638" x2="55.8492" y2="96.9484" gradientUnits="userSpaceOnUse">
<stop stop-color="#00FF00"/>
<stop offset="1" stop-color="#0FDA0F"/>
</linearGradient>
<linearGradient id="paint2_linear_46_256" x1="55.8492" y1="0.103638" x2="55.8492" y2="96.9484" gradientUnits="userSpaceOnUse">
<stop stop-color="#00FF00"/>
<stop offset="1" stop-color="#0FDA0F"/>
</linearGradient>
</defs>
</svg>
