<svg width="102" height="101" viewBox="0 0 102 101" fill="none" xmlns="http://www.w3.org/2000/svg">
<path d="M100.645 13.8181C98.5279 4.44837 89.4937 -1.48239 80.2649 0.392112C70.6951 2.33709 64.5444 11.4982 66.5768 21.1413C67.414 25.1187 68.7924 28.9861 69.9622 33.0254C69.3364 32.7153 68.7219 32.4363 68.1328 32.1121C64.3443 30.0262 60.5417 27.9628 56.7871 25.8177C55.6257 25.1553 54.6871 25.082 53.4609 25.767C50.0079 27.7063 46.4675 29.4878 42.9158 31.3567C35.9646 22.7791 27.3729 19.2725 16.8926 22.3027C7.62716 24.9806 1.66539 31.4272 0.478677 41.0111C-1.1224 53.9522 5.24244 62.4904 17.2026 67.2654C16.7939 69.0977 16.4021 70.865 15.9962 72.6804C14.7362 72.4041 13.6932 72.204 12.6644 71.9418C10.9674 71.5077 10.0231 71.97 9.67924 73.853C8.57145 79.9191 7.30299 85.9569 6.16138 92.0174C5.37211 96.2033 7.76528 99.9946 11.6045 100.809C15.7763 101.694 19.4746 99.4449 20.4358 95.1885C21.8227 89.0351 23.0037 82.8365 24.3427 76.6718C24.6809 75.1102 24.0608 74.3914 22.6542 74.0813C21.4929 73.8248 20.3287 73.5739 18.9954 73.2836C19.3111 71.8206 19.5169 70.4958 19.9087 69.2273C20.075 68.6946 20.6331 68.283 21.0137 67.8151C21.2955 68.3648 21.8057 68.9088 21.8142 69.4641C21.8339 70.8876 22.0397 71.9588 23.4463 72.8326C33.4474 79.0452 43.3978 85.3396 53.3284 91.665C54.5123 92.4176 55.4538 92.4289 56.6518 91.7862C66.5261 86.4981 76.4173 81.2354 86.3282 76.015C87.6333 75.3272 88.1209 74.4449 88.1096 72.9791C88.0505 66.307 88.0053 59.6321 88.1406 52.9628C88.1745 51.3561 88.6311 49.6085 89.3838 48.1878C93.3752 40.6672 97.3074 33.1325 99.7598 24.927C100.851 21.2879 101.499 17.5981 100.645 13.8181ZM54.0754 28.9438C54.642 28.6788 55.5947 28.7465 56.1613 29.0509C61.2944 31.7823 66.3851 34.5955 71.4759 37.4058C71.9551 37.6708 72.516 38.0034 72.7528 38.4544C74.2609 41.3353 75.6872 44.2584 77.3813 47.655C76.3947 47.655 75.6026 47.8946 75.0868 47.6184C65.9172 42.6855 56.7786 37.6905 47.2736 32.5124C49.8077 31.165 51.8993 29.9642 54.0754 28.9438ZM73.1023 50.1863C73.5872 50.4541 73.9818 51.2377 74.0494 51.824C74.1932 53.0868 74.0946 54.375 74.0946 55.652C74.0946 59.852 74.0945 59.852 69.5704 61.7096C69.5704 59.4771 69.4802 57.4053 69.5986 55.3447C69.6916 53.707 69.0827 52.7655 67.6226 51.996C61.4128 48.7233 55.2875 45.29 49.0692 42.0371C47.3244 41.1238 46.0616 40.1344 45.8473 38.026C45.7459 37.0197 45.1877 36.0585 44.6662 34.604C54.4644 39.9569 63.8003 45.042 73.1023 50.1863ZM21.2392 76.8578C19.9651 82.9521 18.8009 88.8377 17.4789 94.6868C16.9377 97.0856 14.8743 98.2638 12.4783 97.8917C10.429 97.5732 8.61092 95.617 8.983 93.5057C10.0654 87.3973 11.3959 81.3369 12.6728 75.0425C15.641 75.6739 18.364 76.249 21.2392 76.8578ZM3.27493 44.4641C3.28056 33.3383 12.1795 24.445 23.3082 24.4422C34.5975 24.4393 43.9249 33.6145 43.9672 44.7629C44.0095 56.0071 35.071 65.0442 23.9198 65.0329C12.577 65.0245 3.26647 55.7478 3.27493 44.4641ZM53.4778 87.1436C53.4778 87.2564 53.3622 87.3692 53.2185 87.6285C52.7393 87.3889 52.2375 87.1831 51.7837 86.9012C43.3499 81.6526 34.9047 76.4237 26.5216 71.0962C25.7098 70.5803 25.287 69.45 24.4329 68.252C34.823 66.3352 37.8814 64.4551 43.846 56.6103C46.8198 58.2791 49.8416 59.9394 52.8098 61.687C53.1875 61.9097 53.4863 62.6003 53.4891 63.0739C53.5201 71.0962 53.4976 79.1213 53.4778 87.1436ZM54.0275 58.7836C51.1129 57.1967 48.2433 55.5279 45.4132 53.9156C46.039 50.7134 46.6169 47.7537 47.2567 44.4782C53.0296 47.6071 58.8138 50.7416 64.9222 54.0509C61.6552 55.8183 58.7264 57.4504 55.7385 58.9725C55.3044 59.1924 54.5039 59.043 54.0275 58.7836ZM85.0823 71.8685C85.0738 72.4295 84.6256 73.2413 84.1464 73.4978C75.1009 78.349 66.0187 83.1353 56.711 88.0598C56.6546 87.2508 56.5785 86.6588 56.5785 86.0697C56.57 78.69 56.6095 71.3104 56.5419 63.9308C56.5306 62.558 56.8604 61.749 58.1599 61.112C60.9279 59.7533 63.6001 58.1945 66.6783 56.5173C66.6783 59.2178 66.6473 61.4615 66.6867 63.7053C66.729 65.9801 67.6339 66.5185 69.6239 65.4529C71.7465 64.3142 73.9142 63.2261 75.9014 61.8787C76.6343 61.3826 77.2629 60.241 77.3277 59.3502C77.5194 56.8105 77.3531 54.2454 77.4348 51.6915C77.4518 51.1701 77.9422 50.6655 78.2157 50.1553C78.6808 50.4654 79.2952 50.6739 79.5828 51.0996C80.4566 52.3878 81.0795 53.862 82.0436 55.0685C82.6665 55.8465 83.718 56.2806 84.5749 56.8669C84.7553 56.7626 84.9385 56.6555 85.1189 56.5512C85.1245 61.656 85.1527 66.7637 85.0823 71.8685ZM96.7239 24.1067C93.8995 34.0599 88.851 43.0378 83.6052 52.4132C77.8069 42.023 71.8903 32.0614 69.5619 20.5466C67.9186 12.4199 73.0291 4.93322 81.0063 3.38288C88.6199 1.90582 96.3011 6.89791 97.5724 14.7173C98.0629 17.7362 97.5724 21.1188 96.7239 24.1067Z" fill="url(#paint0_linear_48_59)"/>
<path d="M19.7453 57.7407C14.3276 55.8831 10.9338 52.2131 10.0261 46.4965C9.79779 45.0589 10.1614 43.5368 9.99791 42.0794C9.91335 41.3184 9.28195 40.6193 8.89577 39.8921C8.23899 40.4586 7.34825 40.904 6.99308 41.62C6.60972 42.3923 6.72811 43.4128 6.69428 43.7115C6.66891 51.8776 11.7315 58.747 18.7841 60.7822C20.0329 61.143 21.3943 61.3657 21.8764 59.945C22.4458 58.2707 20.8729 58.1269 19.7453 57.7407Z" fill="url(#paint1_linear_48_59)"/>
<path d="M83.6112 6.08608C77.4888 6.08889 72.6912 10.8555 72.6545 16.9695C72.6179 23.1145 77.3281 27.9544 83.4223 28.0305C89.6716 28.1094 94.5538 23.3569 94.5904 17.1583C94.6299 10.926 89.8267 6.08326 83.6112 6.08608ZM83.4618 24.9805C79.0955 24.9693 75.7298 21.5416 75.7157 17.0991C75.7016 12.606 79.1547 9.15576 83.6479 9.16985C88.0536 9.18112 91.4757 12.5637 91.5208 16.9469C91.5715 21.5219 88.0903 24.9918 83.4618 24.9805Z" fill="url(#paint2_linear_48_59)"/>
<defs>
<linearGradient id="paint0_linear_48_59" x1="50.6364" y1="0.0465088" x2="50.6364" y2="101" gradientUnits="userSpaceOnUse">
<stop stop-color="#FF00A4"/>
<stop offset="1" stop-color="#CA0082"/>
</linearGradient>
<linearGradient id="paint1_linear_48_59" x1="50.6364" y1="0.0465088" x2="50.6364" y2="101" gradientUnits="userSpaceOnUse">
<stop stop-color="#FF00A4"/>
<stop offset="1" stop-color="#CA0082"/>
</linearGradient>
<linearGradient id="paint2_linear_48_59" x1="50.6364" y1="0.0465088" x2="50.6364" y2="101" gradientUnits="userSpaceOnUse">
<stop stop-color="#FF00A4"/>
<stop offset="1" stop-color="#CA0082"/>
</linearGradient>
</defs>
</svg>
