<svg width="118" height="97" viewBox="0 0 118 97" fill="none" xmlns="http://www.w3.org/2000/svg">
<path d="M51.0937 0.120139C62.3125 0.120139 73.5345 0.155758 84.7532 0.103954C89.8818 0.0780526 94.2916 1.63864 97.7559 5.50773C100.378 8.43788 101.764 11.9055 101.777 15.8264C101.819 28.9522 101.852 42.0779 101.774 55.2005C101.719 64.0363 94.5506 70.8873 85.5238 70.9035C74.5576 70.9229 63.5881 70.897 52.6219 70.9294C51.9452 70.9326 51.1941 71.1301 50.6048 71.4636C41.905 76.372 33.2279 81.3193 24.5443 86.2568C22.2552 87.5584 21.1932 87.0663 20.6914 84.5149C19.8884 80.4257 19.0272 76.3461 18.2858 72.2439C18.0818 71.1172 17.6317 70.8517 16.5341 70.8646C9.70252 70.9391 3.80338 67.1089 1.43336 60.8924C0.717817 59.0178 0.280721 56.9165 0.26777 54.9156C0.164163 42.0779 0.190063 29.2403 0.225678 16.4027C0.25158 7.05536 7.21919 0.152513 16.5795 0.136324C28.0864 0.120135 39.5933 0.133083 51.1002 0.133083C51.0937 0.129845 51.0937 0.123377 51.0937 0.120139ZM24.1363 81.9992C24.5832 81.7564 24.9005 81.5913 25.208 81.4164C33.2052 76.8706 41.1927 72.3054 49.2158 67.805C50.0155 67.3549 51.029 67.0797 51.9485 67.0765C63.1348 67.0279 74.318 67.0571 85.5044 67.0409C92.6274 67.0312 97.9178 61.7342 97.9243 54.6242C97.934 41.9646 97.934 29.3051 97.9243 16.6455C97.9211 9.22464 92.7116 3.9957 85.3069 3.98275C75.7037 3.96657 66.1006 3.97629 56.4975 3.97629C43.1548 3.97629 29.8121 3.95685 16.4694 3.98599C9.54064 3.99895 4.1142 9.25055 4.09153 16.0109C4.04944 29.0299 4.05592 42.0488 4.09153 55.0677C4.10772 60.7014 8.10309 65.6195 13.6364 66.7106C15.4819 67.0732 17.4245 66.9567 19.3251 67.0441C20.6072 67.1024 21.2353 67.6042 21.5073 68.8475C21.6012 69.2684 21.6692 69.6926 21.7534 70.1167C22.5401 74.0247 23.3237 77.9326 24.1363 81.9992Z" fill="url(#paint0_linear_48_57)"/>
<path d="M93.1614 91.6509C93.6114 89.433 94.0421 87.335 94.4662 85.2337C94.913 83.0158 95.3436 80.7948 95.7904 78.5737C96.0657 77.2073 96.7002 76.7087 98.1054 76.6666C99.8279 76.6148 101.58 76.7217 103.263 76.4368C108.945 75.4816 113.187 70.5538 113.213 64.8068C113.268 51.7199 113.255 38.6298 113.213 25.5428C113.203 22.1465 111.801 19.2778 109.376 16.9078C109.195 16.7329 108.997 16.5743 108.819 16.3995C107.935 15.5447 107.828 14.4471 108.544 13.6183C109.256 12.7959 110.402 12.7085 111.341 13.4855C114.116 15.7908 115.939 18.7112 116.684 22.2436C116.949 23.4998 117.085 24.8079 117.088 26.0933C117.117 38.8564 117.117 51.6228 117.101 64.3859C117.091 73.4872 110.043 80.5066 100.955 80.539C98.9569 80.5454 99.4297 80.2541 99.0346 82.1449C98.1831 86.2244 97.4028 90.3202 96.5837 94.4062C96.1433 96.6014 94.9648 97.1388 93.0189 96.0315C84.2414 91.0422 75.4737 86.0399 66.68 81.0797C66.0907 80.7494 65.3396 80.5681 64.6629 80.5584C61.4284 80.5066 58.1906 80.539 54.9561 80.5325C53.4927 80.5293 52.6185 79.7781 52.6444 78.5737C52.6671 77.4146 53.5315 76.6764 54.9238 76.6731C58.5921 76.6634 62.2605 76.6408 65.9256 76.6958C66.5666 76.7055 67.266 76.9548 67.8358 77.2786C75.8751 81.8179 83.8982 86.3896 91.9278 90.9515C92.2904 91.162 92.6628 91.3724 93.1614 91.6509Z" fill="url(#paint1_linear_48_57)"/>
<path d="M78.2223 43.2501C79.7278 41.6247 80.6117 39.7339 80.9776 37.6132C81.7061 33.3912 80.8416 29.5803 77.7269 26.5013C74.5507 23.3607 69.9596 23.3315 66.6442 26.3264C61.7778 30.7233 61.7746 39.5364 66.6344 43.9365C68.127 45.2866 69.8722 46.028 71.8893 46.1608C73.3527 46.2547 74.1266 47.0577 74.0068 48.2912C73.8934 49.4406 72.9707 50.0946 71.5752 50.0072C67.8777 49.7676 64.912 48.1099 62.597 45.2769C57.912 39.5461 57.9573 30.6035 62.6682 24.8986C67.7094 18.7955 76.189 18.6983 81.3597 24.6817C86.6113 30.7589 86.2778 40.6243 80.6538 46.3615C80.3689 46.6529 80.0678 47.2487 80.1811 47.5498C80.4499 48.2588 80.8157 49.0456 81.8065 49.0424C81.9489 49.0424 82.0914 49.0132 82.2371 49.0035C83.5095 48.929 84.374 49.5313 84.5294 50.603C84.688 51.7167 83.9693 52.633 82.7033 52.8435C80.6376 53.1899 78.9184 52.5262 77.6719 50.8555C77.0567 50.0299 76.584 49.0845 76.1145 48.1585C75.5803 47.103 75.1594 45.986 74.6219 44.9337C73.8481 43.4152 73.547 43.3019 71.9217 43.6677C70.8273 43.9138 69.8495 43.3731 69.5484 42.35C69.2635 41.3884 69.7588 40.4235 70.7593 39.9962C73.0678 39.0119 75.4864 39.6141 77.0599 41.5859C77.4647 42.0877 77.8014 42.6414 78.2223 43.2501Z" fill="url(#paint2_linear_48_57)"/>
<path d="M46.6872 40.6339C45.4633 40.6339 44.2427 40.6663 43.0221 40.6177C42.4069 40.595 42.1446 40.8281 41.9504 41.3915C41.1409 43.7324 40.2894 46.0603 39.4476 48.3915C38.9425 49.7837 37.968 50.3535 36.8412 49.9326C35.7016 49.5085 35.3163 48.4692 35.8181 47.0705C38.8162 38.6848 41.8241 30.3023 44.8125 21.9133C45.159 20.9387 45.7061 20.2653 46.8102 20.2782C47.869 20.2912 48.3935 20.9582 48.7269 21.8809C51.7607 30.2926 54.8042 38.701 57.8379 47.1126C58.3365 48.4983 57.9286 49.5506 56.776 49.9553C55.6881 50.3374 54.7038 49.7805 54.2181 48.4627C53.3666 46.1348 52.5119 43.8101 51.7089 41.466C51.4855 40.812 51.152 40.5853 50.4656 40.6144C49.2029 40.676 47.9434 40.6339 46.6872 40.6339ZM49.9573 36.7065C48.9083 33.812 47.8949 31.0113 46.7714 27.9128C45.6608 31.0243 44.6668 33.8217 43.6372 36.7065C45.8357 36.7065 47.8301 36.7065 49.9573 36.7065Z" fill="url(#paint3_linear_48_57)"/>
<path d="M24.0972 24.1376C24.0972 27.0645 24.0972 29.8231 24.0972 32.7111C24.5084 32.7306 24.884 32.7629 25.2596 32.7662C27.7041 32.7694 30.1486 32.7564 32.5931 32.7726C33.9821 32.7823 34.8109 33.5432 34.785 34.7282C34.7623 35.8647 33.9497 36.6029 32.6157 36.6126C29.8183 36.632 27.0209 36.6191 24.1102 36.6191C24.0908 37.0821 24.0584 37.4641 24.0584 37.8462C24.0552 41.0094 24.0616 44.1727 24.0519 47.336C24.0519 47.7634 24.0487 48.2069 23.9451 48.6181C23.699 49.5732 23.0191 50.0524 22.0478 50.0557C21.1088 50.0589 20.3512 49.3531 20.2217 48.4012C20.1764 48.0839 20.1861 47.7569 20.1861 47.4331C20.1828 39.274 20.1828 31.1117 20.1861 22.9526C20.1861 20.8125 20.7235 20.2685 22.8475 20.2685C26.8007 20.2653 30.754 20.262 34.7105 20.2685C36.2096 20.2717 37.0708 20.9679 37.087 22.1593C37.1032 23.3832 36.2031 24.1311 34.662 24.1344C31.5699 24.1441 28.4779 24.1376 25.3891 24.1376C24.9941 24.1376 24.6056 24.1376 24.0972 24.1376Z" fill="url(#paint4_linear_48_57)"/>
<defs>
<linearGradient id="paint0_linear_48_57" x1="58.6532" y1="0.103638" x2="58.6532" y2="96.5901" gradientUnits="userSpaceOnUse">
<stop stop-color="#FF00A4"/>
<stop offset="1" stop-color="#CA0082"/>
</linearGradient>
<linearGradient id="paint1_linear_48_57" x1="58.6532" y1="0.103638" x2="58.6532" y2="96.5901" gradientUnits="userSpaceOnUse">
<stop stop-color="#FF00A4"/>
<stop offset="1" stop-color="#CA0082"/>
</linearGradient>
<linearGradient id="paint2_linear_48_57" x1="58.6532" y1="0.103638" x2="58.6532" y2="96.5901" gradientUnits="userSpaceOnUse">
<stop stop-color="#FF00A4"/>
<stop offset="1" stop-color="#CA0082"/>
</linearGradient>
<linearGradient id="paint3_linear_48_57" x1="58.6532" y1="0.103638" x2="58.6532" y2="96.5901" gradientUnits="userSpaceOnUse">
<stop stop-color="#FF00A4"/>
<stop offset="1" stop-color="#CA0082"/>
</linearGradient>
<linearGradient id="paint4_linear_48_57" x1="58.6532" y1="0.103638" x2="58.6532" y2="96.5901" gradientUnits="userSpaceOnUse">
<stop stop-color="#FF00A4"/>
<stop offset="1" stop-color="#CA0082"/>
</linearGradient>
</defs>
</svg>
