<svg width="18" height="14" viewBox="0 0 18 14" fill="none" xmlns="http://www.w3.org/2000/svg">
<path d="M18 1.3125V12.6875C18 13.0375 17.865 13.3437 17.595 13.6062C17.325 13.8687 17.01 14 16.65 14H1.35C0.99 14 0.675 13.8687 0.405 13.6062C0.135 13.3437 0 13.0375 0 12.6875V1.3125C0 0.9625 0.135 0.65625 0.405 0.39375C0.675 0.13125 0.99 0 1.35 0H16.65C17.01 0 17.325 0.13125 17.595 0.39375C17.865 0.65625 18 0.9625 18 1.3125ZM1.35 3.69687H16.65V1.3125H1.35V3.69687ZM1.35 6.51875V12.6875H16.65V6.51875H1.35Z" fill="url(#paint0_linear_68_468)"/>
<defs>
<linearGradient id="paint0_linear_68_468" x1="9" y1="0" x2="9" y2="14" gradientUnits="userSpaceOnUse">
<stop stop-color="#FF00A4"/>
<stop offset="1" stop-color="#CA0082"/>
</linearGradient>
</defs>
</svg>
