<svg width="28" height="27" viewBox="0 0 28 27" fill="none" xmlns="http://www.w3.org/2000/svg">
<path d="M13.9954 14.5377C14.4321 14.5377 14.8415 14.3557 15.1235 14.0282L19.7905 8.73351C19.7086 8.71532 19.6177 8.70622 19.5267 8.70622H8.46417C8.3732 8.70622 8.28223 8.71532 8.20035 8.73351L12.8673 14.0282C13.1494 14.3466 13.5678 14.5377 13.9954 14.5377Z" fill="url(#paint0_linear_13_80)"/>
<path d="M15.9332 14.7379C15.4419 15.2928 14.7414 15.6112 13.9954 15.6112C13.2585 15.6112 12.5489 15.2928 12.0577 14.7379L7.38157 9.42496C7.32699 9.56142 7.29061 9.71608 7.29061 9.87073V17.6036C7.29061 18.2495 7.81825 18.7771 8.46417 18.7771H19.5267C20.1726 18.7771 20.7003 18.2495 20.7003 17.6036V9.87073C20.7003 9.71608 20.673 9.56142 20.6093 9.42496L15.9332 14.7379Z" fill="url(#paint1_linear_13_80)"/>
<path d="M27.2959 6.95956C27.2959 3.12953 24.1664 0 20.3364 0H7.6545C3.82447 0 0.694946 3.12953 0.694946 6.95956V19.6414C0.694946 23.4715 3.82447 26.601 7.6545 26.601H20.3364C24.1664 26.601 27.2959 23.4715 27.2959 19.6414V6.95956ZM21.7738 17.5945C21.7738 18.8317 20.7639 19.8416 19.5267 19.8416H8.46417C7.22692 19.8416 6.2171 18.8317 6.2171 17.5945V9.87075C6.2171 8.63349 7.22692 7.62367 8.46417 7.62367H19.5267C20.7639 7.62367 21.7738 8.63349 21.7738 9.87075V17.5945Z" fill="url(#paint2_linear_13_80)"/>
<defs>
<linearGradient id="paint0_linear_13_80" x1="13.9954" y1="0" x2="13.9954" y2="26.601" gradientUnits="userSpaceOnUse">
<stop stop-color="#FF00A4"/>
<stop offset="1" stop-color="#CA0082"/>
</linearGradient>
<linearGradient id="paint1_linear_13_80" x1="13.9954" y1="0" x2="13.9954" y2="26.601" gradientUnits="userSpaceOnUse">
<stop stop-color="#FF00A4"/>
<stop offset="1" stop-color="#CA0082"/>
</linearGradient>
<linearGradient id="paint2_linear_13_80" x1="13.9954" y1="0" x2="13.9954" y2="26.601" gradientUnits="userSpaceOnUse">
<stop stop-color="#FF00A4"/>
<stop offset="1" stop-color="#CA0082"/>
</linearGradient>
</defs>
</svg>
