<svg width="20" height="15" viewBox="0 0 20 15" fill="none" xmlns="http://www.w3.org/2000/svg">
<path d="M4.1845 15C3.44029 15 2.80682 14.7307 2.28409 14.1921C1.76136 13.6535 1.5 12.9995 1.5 12.23H0V1.40845C0 1.03286 0.136364 0.704225 0.409091 0.422535C0.681818 0.140845 1 0 1.36364 0H14.5227V3.92019H16.9091L20 8.16901V12.23H18.3864C18.3864 12.9995 18.1259 13.6535 17.605 14.1921C17.084 14.7307 16.4514 15 15.7072 15C14.963 15 14.3295 14.7307 13.8068 14.1921C13.2841 13.6535 13.0227 12.9995 13.0227 12.23H6.86364C6.86364 12.9969 6.60317 13.6502 6.08223 14.1901C5.56127 14.73 4.9287 15 4.1845 15ZM4.18182 13.5915C4.54545 13.5915 4.85606 13.4585 5.11364 13.1925C5.37121 12.9264 5.5 12.6056 5.5 12.23C5.5 11.8545 5.37121 11.5336 5.11364 11.2676C4.85606 11.0016 4.54545 10.8685 4.18182 10.8685C3.81818 10.8685 3.50758 11.0016 3.25 11.2676C2.99242 11.5336 2.86364 11.8545 2.86364 12.23C2.86364 12.6056 2.99242 12.9264 3.25 13.1925C3.50758 13.4585 3.81818 13.5915 4.18182 13.5915ZM1.36364 10.8216H1.86364C2.12121 10.3991 2.44728 10.0626 2.84184 9.81221C3.2364 9.56182 3.6758 9.43662 4.16002 9.43662C4.64425 9.43662 5.08712 9.56573 5.48864 9.82394C5.89015 10.0822 6.2197 10.4147 6.47727 10.8216H13.1591V1.40845H1.36364V10.8216ZM15.7045 13.5915C16.0682 13.5915 16.3788 13.4585 16.6364 13.1925C16.8939 12.9264 17.0227 12.6056 17.0227 12.23C17.0227 11.8545 16.8939 11.5336 16.6364 11.2676C16.3788 11.0016 16.0682 10.8685 15.7045 10.8685C15.3409 10.8685 15.0303 11.0016 14.7727 11.2676C14.5152 11.5336 14.3864 11.8545 14.3864 12.23C14.3864 12.6056 14.5152 12.9264 14.7727 13.1925C15.0303 13.4585 15.3409 13.5915 15.7045 13.5915ZM14.5227 8.80282H18.75L16.2273 5.32864H14.5227V8.80282Z" fill="url(#paint0_linear_68_478)"/>
<defs>
<linearGradient id="paint0_linear_68_478" x1="10" y1="0" x2="10" y2="15" gradientUnits="userSpaceOnUse">
<stop stop-color="#FF00A4"/>
<stop offset="1" stop-color="#CA0082"/>
</linearGradient>
</defs>
</svg>
