<svg width="95" height="92" viewBox="0 0 95 92" fill="none" xmlns="http://www.w3.org/2000/svg">
<path d="M34.2769 91.5722C33.5719 91.0274 32.5171 90.488 31.8388 89.6441C29.5743 86.8268 27.5154 83.8467 25.2216 81.0534C24.4899 80.1615 23.3683 79.4138 22.2734 79.0319C18.9354 77.8649 15.544 76.8235 12.1285 75.8995C10.083 75.3468 9.15907 74.1504 9.13503 72.1049C9.09231 68.4224 9.09498 64.7346 8.93743 61.0574C8.8947 60.088 8.52885 58.9985 7.96539 58.2107C5.8264 55.2172 3.57256 52.3038 1.30805 49.4037C0.0422806 47.7828 -0.0458194 46.2847 1.19859 44.5783C3.40435 41.5527 5.54334 38.4711 7.59955 35.3414C8.09892 34.583 8.39266 33.5415 8.398 32.6309C8.41669 28.8817 8.31522 25.1324 8.19772 21.3858C8.1363 19.4711 8.92941 18.3255 10.7693 17.7167C14.3824 16.5204 17.9714 15.2519 21.5337 13.914C22.3295 13.6149 23.1467 13.0274 23.646 12.3465C25.8998 9.27285 28.0655 6.13513 30.2179 2.98672C31.2941 1.41385 32.5866 0.943854 34.4452 1.55004C38.0609 2.72769 41.7113 3.81188 45.3778 4.82663C46.1976 5.05362 47.2044 5.04027 48.0135 4.78124C51.5731 3.64365 55.1088 2.42059 58.6177 1.13613C60.5724 0.420457 62.0091 0.831695 63.2402 2.53274C65.3204 5.40877 67.43 8.27146 69.6919 11.0033C70.4663 11.9379 71.6386 12.7284 72.7895 13.1316C76.1275 14.3066 79.5243 15.324 82.9398 16.2613C84.9078 16.8007 85.7864 17.9971 85.8211 19.9385C85.8879 23.621 85.8692 27.3088 86.0428 30.9859C86.0908 32.0141 86.4807 33.165 87.0735 34.0035C89.1618 36.9543 91.3649 39.825 93.608 42.661C94.9459 44.3513 95.018 45.8975 93.7282 47.6573C91.6293 50.5173 89.5517 53.404 87.6504 56.3949C86.9988 57.4203 86.6249 58.7902 86.6009 60.0133C86.5315 63.6263 86.6757 67.2474 86.7825 70.8631C86.8359 72.7004 86.0241 73.8113 84.2856 74.3881C80.8622 75.5283 77.42 76.6339 74.0713 77.9691C72.8883 78.4418 71.7321 79.3684 70.9523 80.3858C68.7946 83.2004 66.8132 86.1512 64.8184 89.086C63.7048 90.7283 62.3856 91.2197 60.4362 90.5707C56.8899 89.3878 53.2982 88.3329 49.6905 87.3476C48.812 87.1072 47.7358 87.1206 46.8679 87.3956C43.367 88.5012 39.9115 89.7563 36.4373 90.9473C35.8765 91.1342 35.305 91.2757 34.2769 91.5722ZM6.87588 46.8562C9.17777 49.9111 11.501 52.8486 13.64 55.9142C14.3049 56.8702 14.7349 58.1573 14.8096 59.3216C15.0099 62.4701 15.0072 65.6318 14.9912 68.7909C14.9832 70.1047 15.4132 70.783 16.751 71.1409C19.8541 71.9714 22.941 72.89 25.9719 73.9555C27.0161 74.3213 28.0682 75.0583 28.7759 75.9075C30.7867 78.3349 32.672 80.8745 34.5012 83.4408C35.297 84.557 35.986 84.9415 37.3906 84.3834C40.2506 83.2431 43.1747 82.2204 46.1415 81.4059C47.4394 81.0481 48.9722 81.0454 50.286 81.3552C53.2181 82.0415 56.1102 82.9441 58.9622 83.9241C60.3161 84.3888 61.0958 84.1938 61.8863 82.9627C63.5206 80.4205 65.2056 77.8943 67.0936 75.5417C67.9801 74.4361 69.2673 73.4801 70.5731 72.922C73.2221 71.7898 75.97 70.8444 78.7472 70.0754C80.4937 69.592 80.9637 68.7348 80.8435 67.0151C80.6299 64.0002 80.5524 60.9666 80.6192 57.9437C80.6432 56.8382 81.0304 55.6044 81.6259 54.6698C83.4284 51.8472 85.3805 49.1153 87.3566 46.4076C87.9788 45.5557 87.9307 44.9815 87.3005 44.1778C85.2336 41.5367 83.1721 38.8877 81.2627 36.1345C80.6352 35.2265 80.2239 34.0062 80.1599 32.9006C79.9729 29.6855 79.9676 26.4569 79.9809 23.2337C79.9863 21.9813 79.5403 21.3645 78.3093 21.0253C75.2116 20.1681 72.1166 19.2735 69.091 18.1974C67.9908 17.8075 66.8826 17.0357 66.1375 16.1385C64.0787 13.6657 62.1533 11.0754 60.292 8.4477C59.5336 7.37687 58.8313 7.26471 57.6697 7.71067C55.1595 8.67469 52.5398 9.36365 50.067 10.4024C47.8025 11.3558 45.7143 11.3611 43.4231 10.4826C40.9182 9.52388 38.2798 8.92571 35.7216 8.09788C34.6294 7.74272 33.9378 7.89759 33.2622 8.9257C31.497 11.6175 29.6892 14.2932 27.7184 16.8328C26.968 17.8021 25.8197 18.6326 24.6795 19.0946C21.8248 20.2509 18.8954 21.239 15.9472 22.1389C14.4919 22.5822 14.0245 23.3112 14.1314 24.8093C14.3183 27.4316 14.1928 30.0753 14.3957 32.695C14.5666 34.9141 14.0459 36.7647 12.6813 38.5512C10.6518 41.2163 8.83329 44.0336 6.87588 46.8562Z" fill="url(#paint0_linear_46_257)"/>
<path d="M46.7985 50.4746C50.8121 45.4302 54.7723 40.4339 58.7619 35.4616C59.2453 34.8581 59.8034 34.2011 60.4737 33.8834C61.7955 33.2585 63.0933 33.5522 64.0039 34.7379C64.9706 35.9983 64.8238 37.3202 63.8544 38.5432C60.7514 42.4607 57.6377 46.3675 54.5293 50.2823C52.8523 52.392 51.2047 54.5283 49.4929 56.6085C47.84 58.6193 46.1389 58.6808 44.3177 56.8248C41.3696 53.8206 38.4347 50.8031 35.5187 47.7668C33.9992 46.1833 33.9324 44.5329 35.2516 43.2565C36.5788 41.972 38.1517 42.1082 39.7619 43.6624C42.0772 45.8922 44.3818 48.1327 46.7985 50.4746Z" fill="url(#paint1_linear_46_257)"/>
<defs>
<linearGradient id="paint0_linear_46_257" x1="47.4827" y1="0.800293" x2="47.4827" y2="91.5722" gradientUnits="userSpaceOnUse">
<stop stop-color="#00FF00"/>
<stop offset="1" stop-color="#0FDA0F"/>
</linearGradient>
<linearGradient id="paint1_linear_46_257" x1="47.4827" y1="0.800293" x2="47.4827" y2="91.5722" gradientUnits="userSpaceOnUse">
<stop stop-color="#00FF00"/>
<stop offset="1" stop-color="#0FDA0F"/>
</linearGradient>
</defs>
</svg>
