<svg width="24" height="24" viewBox="0 0 24 24" fill="none" xmlns="http://www.w3.org/2000/svg">
<path d="M6.85438 23.608C6.29285 23.608 5.81703 23.4107 5.42691 23.0162C5.0368 22.6217 4.84174 22.1426 4.84174 21.5789C4.84174 21.0152 5.03691 20.5375 5.42725 20.1458C5.81757 19.7542 6.29224 19.5584 6.85126 19.5584C7.41027 19.5584 7.88873 19.7556 8.28665 20.1502C8.68458 20.5447 8.88354 21.0238 8.88354 21.5875C8.88354 22.1512 8.68628 22.6289 8.29176 23.0205C7.89722 23.4122 7.4181 23.608 6.85438 23.608ZM18.7117 23.608C18.1502 23.608 17.6744 23.4107 17.2842 23.0162C16.8941 22.6217 16.6991 22.1426 16.6991 21.5789C16.6991 21.0152 16.8942 20.5375 17.2846 20.1458C17.6749 19.7542 18.1496 19.5584 18.7086 19.5584C19.2676 19.5584 19.7461 19.7556 20.144 20.1502C20.5419 20.5447 20.7409 21.0238 20.7409 21.5875C20.7409 22.1512 20.5436 22.6289 20.1491 23.0205C19.7546 23.4122 19.2754 23.608 18.7117 23.608ZM5.20086 3.97121L8.5087 10.8787H17.1884L20.9801 3.97121H5.20086ZM3.46388 17.3672L6.8713 11.1703L2.30402 1.53702H0V0H3.28741L4.43705 2.43419H23.6456L18.1444 12.4157H7.9127L6.05564 15.8302H20.7409V17.3672H3.46388Z" fill="#0E0E0E"/>
</svg>
