<svg width="27" height="27" viewBox="0 0 27 27" fill="none" xmlns="http://www.w3.org/2000/svg">
<path fill-rule="evenodd" clip-rule="evenodd" d="M19.6414 0H6.95956C3.12953 0 0 3.12953 0 6.95956V19.6414C0 23.4715 3.12953 26.601 6.95956 26.601H19.6414C23.4715 26.601 26.601 23.4715 26.601 19.6414V6.95956C26.601 3.12953 23.4715 0 19.6414 0ZM13.9009 20.6421C12.6364 20.6421 11.39 20.3237 10.271 19.7142L6.1135 20.8241L7.22339 16.6847C6.59566 15.5476 6.26815 14.283 6.26815 12.9912C6.26815 8.77905 9.6979 5.34931 13.91 5.34931C18.1221 5.34931 21.5519 8.77905 21.5519 12.9912C21.5428 17.2124 18.1221 20.6421 13.9009 20.6421Z" fill="url(#paint0_linear_13_81)"/>
<path fill-rule="evenodd" clip-rule="evenodd" d="M13.9009 6.80488C10.4803 6.80488 7.70558 9.58871 7.70558 13.0003C7.70558 14.1283 8.01489 15.2382 8.61533 16.2117L8.77908 16.4755L8.16045 18.7862L10.4803 18.1676L10.7441 18.3223C11.7085 18.8954 12.8002 19.1956 13.91 19.1956C17.3307 19.1956 20.1054 16.4118 20.1054 13.0003C20.1054 9.58871 17.3216 6.80488 13.9009 6.80488ZM17.549 15.3383C17.3216 15.9023 16.7485 16.2571 16.1662 16.3663C15.6113 16.4755 15.1564 16.2935 14.6378 16.1207C14.183 15.966 13.7372 15.7477 13.3278 15.493C12.509 14.9926 11.7994 14.3194 11.2263 13.537C11.0534 13.3005 10.8897 13.0548 10.7441 12.8001C10.544 12.4635 10.3711 12.1087 10.2802 11.7266C10.2438 11.572 10.2256 11.4082 10.2165 11.2444C10.2074 10.6713 10.4257 10.0891 10.8806 9.71607C11.1444 9.49773 11.5356 9.40676 11.8267 9.57051C12.1451 9.75246 12.318 10.2073 12.4636 10.5348C12.5818 10.7896 12.7092 11.1171 12.6637 11.3991C12.6182 11.6811 12.3908 11.9177 12.2179 12.1269C12.0997 12.2725 12.0815 12.3907 12.1815 12.5454C12.7729 13.5279 13.5916 14.2375 14.656 14.6651C14.8016 14.7197 14.9108 14.7015 15.0108 14.5923C15.1928 14.3649 15.3747 13.9191 15.6568 13.8008C16.0298 13.6462 16.4391 13.8554 16.7485 14.0465C17.0396 14.2193 17.5308 14.4377 17.6127 14.8016C17.6491 14.9926 17.6127 15.1745 17.549 15.3383Z" fill="url(#paint1_linear_13_81)"/>
<defs>
<linearGradient id="paint0_linear_13_81" x1="13.3005" y1="0" x2="13.3005" y2="26.601" gradientUnits="userSpaceOnUse">
<stop stop-color="#FF00A4"/>
<stop offset="1" stop-color="#CA0082"/>
</linearGradient>
<linearGradient id="paint1_linear_13_81" x1="13.3005" y1="0" x2="13.3005" y2="26.601" gradientUnits="userSpaceOnUse">
<stop stop-color="#FF00A4"/>
<stop offset="1" stop-color="#CA0082"/>
</linearGradient>
</defs>
</svg>
