<svg width="25" height="20" viewBox="0 0 25 20" fill="none" xmlns="http://www.w3.org/2000/svg">
<path d="M25 1.875V18.125C25 18.625 24.8125 19.0625 24.4375 19.4375C24.0625 19.8125 23.625 20 23.125 20H1.875C1.375 20 0.9375 19.8125 0.5625 19.4375C0.1875 19.0625 0 18.625 0 18.125V1.875C0 1.375 0.1875 0.9375 0.5625 0.5625C0.9375 0.1875 1.375 0 1.875 0H23.125C23.625 0 24.0625 0.1875 24.4375 0.5625C24.8125 0.9375 25 1.375 25 1.875ZM1.875 5.28125H23.125V1.875H1.875V5.28125ZM1.875 9.3125V18.125H23.125V9.3125H1.875Z" fill="black"/>
</svg>
