<svg width="34" height="24" viewBox="0 0 34 24" fill="none" xmlns="http://www.w3.org/2000/svg">
<rect x="0.5" y="0.5" width="33" height="23" rx="3.5" fill="#B4151B" stroke="#D9D9D9"/>
<path d="M9.61684 9.76731C9.75326 9.67668 9.92897 9.26395 9.72823 9.09212C9.66466 9.03772 9.55833 9.02193 9.40999 9.04612C9.2724 9.06852 9.19325 9.11362 9.1395 9.18423C9.05313 9.29774 8.97386 9.64016 9.10768 9.76737C9.23805 9.89118 9.53003 9.82493 9.61684 9.76731ZM7.67561 9.09212C7.57787 9.70373 7.46777 10.3034 7.35736 10.9028C6.64852 10.91 5.9248 10.9366 5.2411 10.8875C5.37023 10.3011 5.46284 9.67936 5.59117 9.09212H4.8274C4.55401 10.588 4.30527 12.1078 4 13.5729H4.7797C4.90197 12.8214 5.0164 12.0621 5.17747 11.3479C5.84225 11.3321 6.63901 11.3045 7.27785 11.3632C7.14613 12.1058 6.98697 12.8218 6.86415 13.5729H7.64385C7.89445 12.0549 8.15832 10.5499 8.47132 9.09212H7.67561ZM18.7025 10.3811C18.0958 10.1448 17.6189 10.5442 17.3978 10.9182C17.4479 10.7518 17.4686 10.5569 17.5092 10.3811H16.9045C16.7567 11.4867 16.5388 12.5246 16.3318 13.5729H17.016C17.1119 12.9507 17.1533 12.1119 17.366 11.5167C17.536 11.041 17.981 10.6358 18.623 10.8568C18.6319 10.6814 18.684 10.5474 18.7025 10.3811ZM19.0843 12.8211C19.0212 12.6639 19.005 12.4044 19.0207 12.2072C19.0561 11.7638 19.2236 11.224 19.4822 10.9796C19.839 10.6423 20.5434 10.6981 21.1052 10.8875C21.1226 10.7049 21.1607 10.542 21.1848 10.3658C20.2634 10.2207 19.389 10.311 18.9254 10.7802C18.4715 11.2394 18.1741 12.295 18.3843 12.9592C18.6305 13.7364 19.7343 13.7786 20.6279 13.4809C20.6675 13.3247 20.6884 13.1505 20.7234 12.9899C20.235 13.2345 19.3014 13.3616 19.0843 12.8211ZM26.7698 10.3964C26.1651 10.1048 25.6616 10.5941 25.465 10.8875C25.521 10.737 25.5242 10.5354 25.5764 10.3811H24.9718C24.8087 11.477 24.6123 12.5407 24.3831 13.5729H25.0832C25.0876 13.1498 25.1738 12.8369 25.2423 12.4221C25.3886 11.5362 25.6034 10.5648 26.6745 10.8568C26.7099 10.707 26.7246 10.5371 26.7698 10.3964ZM8.91671 10.3811C8.89818 10.3837 8.89941 10.4054 8.90077 10.4271C8.75002 11.5145 8.54595 12.5505 8.32798 13.5729H9.01217C9.17657 12.4782 9.36489 11.4067 9.6009 10.3811L8.91671 10.3811ZM14.9314 10.3198C14.437 10.3565 14.0191 10.4937 13.7221 10.7955C13.3578 11.1655 13.0629 11.9838 13.1493 12.729C13.2726 13.7921 14.6451 13.7539 15.7429 13.4962C15.7616 13.3096 15.8084 13.1501 15.8384 12.9745C15.3862 13.1377 14.601 13.3655 14.1357 13.082C13.7846 12.8678 13.7825 12.3256 13.8971 11.8543C14.6349 11.8317 15.4017 11.836 16.1406 11.8543C16.1874 11.5203 16.3216 11.1561 16.2042 10.8262C16.0495 10.3907 15.4953 10.2778 14.9314 10.3198ZM15.5837 11.486H13.9766C14.0275 11.1297 14.3599 10.738 14.8836 10.7187C15.3765 10.7006 15.7294 10.8932 15.5837 11.486ZM12.3378 10.3811C11.7587 10.1713 11.0529 10.4218 10.7469 10.66C10.748 10.6705 10.7396 10.6719 10.7306 10.6727C10.7358 10.6684 10.7415 10.6642 10.7469 10.66C10.7469 10.6591 10.7468 10.6582 10.7466 10.6574C10.7517 10.5549 10.7891 10.4836 10.7943 10.3811H10.2056C9.96023 11.9553 9.66929 13.4853 9.36229 15H10.0465C10.1455 14.4101 10.2109 13.7878 10.3488 13.2353C10.5051 13.8164 11.5254 13.7054 11.956 13.4809C12.8442 13.0176 13.5294 10.8128 12.3378 10.3811ZM11.7968 12.9745C11.4307 13.3484 10.5308 13.3428 10.4602 12.7136C10.4295 12.4398 10.5352 12.1528 10.5876 11.8696C10.6404 11.583 10.6785 11.3079 10.7307 11.0563C11.0912 10.6317 12.1508 10.5804 12.2583 11.2865C12.3515 11.8995 12.0999 12.6648 11.7968 12.9745ZM29.3156 9.00006C29.257 9.49591 29.1786 9.97275 29.077 10.4271C27.3987 9.91478 26.3694 11.1057 26.388 12.5755C26.3916 12.8598 26.4423 13.1417 26.6266 13.3428C26.9444 13.6892 27.854 13.7722 28.3133 13.4808C28.4022 13.4244 28.493 13.3218 28.5519 13.2507C28.5962 13.1971 28.6665 13.0568 28.6793 13.0972C28.655 13.2529 28.619 13.3972 28.6157 13.5729H29.2362C29.3559 11.9184 29.7256 10.5052 30 9H29.3157V9.00006H29.3156ZM27.7882 13.22C27.3276 13.2295 27.0985 12.9546 27.088 12.4988C27.0696 11.7005 27.4327 10.8136 28.17 10.734C28.5133 10.697 28.7619 10.774 29.0134 10.8568C28.7824 11.7536 28.8658 13.1977 27.7882 13.22ZM21.8848 10.3811C21.8512 10.5635 21.7994 10.7284 21.7576 10.9028C22.1613 10.8052 23.4185 10.5058 23.5397 11.0256C23.5799 11.1983 23.5105 11.3817 23.4601 11.5167C22.3233 11.4128 21.3967 11.595 21.1529 12.376C20.9897 12.8991 21.1712 13.4139 21.5189 13.5576C22.1886 13.8343 23.0031 13.5173 23.2851 13.082C23.2558 13.2327 23.2281 13.385 23.2375 13.5729H23.8261C23.8324 13.0292 23.9145 12.589 24.0012 12.0997C24.075 11.6831 24.2141 11.2706 24.1921 10.9028C24.1415 10.0606 22.6947 10.3586 21.8848 10.3811ZM22.9987 12.9591C22.6461 13.292 21.6563 13.3866 21.7576 12.5908C21.8416 11.9299 22.5878 11.7895 23.3964 11.8849C23.3363 12.2464 23.2674 12.7055 22.9987 12.9591Z" fill="white"/>
</svg>
