<svg width="22" height="23" viewBox="0 0 22 23" fill="none" xmlns="http://www.w3.org/2000/svg">
<path d="M4.84271 16.9379C5.26697 16.9395 5.68733 16.8564 6.0795 16.6935C6.47167 16.5305 6.82788 16.291 7.12754 15.9887L10.4279 12.6648C10.5447 12.5525 10.6999 12.4898 10.8615 12.4898C11.023 12.4898 11.1783 12.5525 11.295 12.6648L14.6065 15.9978C14.906 16.3006 15.2621 16.5406 15.6543 16.704C16.0465 16.8674 16.4669 16.9509 16.8914 16.9498H17.5375L13.3554 21.1591C12.7282 21.7891 11.8783 22.1429 10.9922 22.1429C10.1061 22.1429 9.25614 21.7891 8.62891 21.1591L4.43844 16.9407L4.84271 16.9379Z" fill="#0E0E0E"/>
<path d="M16.8907 5.19126C16.4662 5.19011 16.0457 5.27366 15.6536 5.43707C15.2614 5.60047 14.9053 5.84049 14.6058 6.14325L11.2943 9.47699C11.1792 9.59248 11.0233 9.65734 10.8608 9.65734C10.6982 9.65734 10.5423 9.59248 10.4272 9.47699L7.12754 6.15588C6.82833 5.85274 6.47228 5.61242 6.08006 5.44888C5.68784 5.28534 5.26726 5.20182 4.84271 5.20318H4.44541L8.63588 0.985501C8.94619 0.673066 9.31461 0.425223 9.7201 0.256128C10.1256 0.0870331 10.5602 0 10.9991 0C11.438 0 11.8727 0.0870331 12.2781 0.256128C12.6836 0.425223 13.0521 0.673066 13.3624 0.985501L17.5375 5.19126H16.8907Z" fill="#0E0E0E"/>
<path d="M0.979143 8.69266L3.51141 6.14395C3.56852 6.16744 3.62954 6.17982 3.69124 6.18043H4.84271C5.44191 6.18194 6.01629 6.42145 6.44098 6.8469L9.74066 10.1659C10.0378 10.4645 10.4405 10.6321 10.8604 10.6321C11.2803 10.6321 11.683 10.4645 11.9802 10.1659L15.2924 6.83427C15.717 6.40857 16.2914 6.1688 16.8907 6.1671H18.3042C18.3625 6.16578 18.42 6.15414 18.4743 6.13273L21.0226 8.69266C21.6485 9.32396 22 10.1794 22 11.0712C22 11.9631 21.6485 12.8185 21.0226 13.4498L18.4799 16.0091C18.4257 15.9872 18.3681 15.9756 18.3098 15.9747H16.8907C16.2914 15.9729 15.717 15.7332 15.2924 15.3075L11.9809 11.9745C11.3821 11.3726 10.3387 11.3726 9.74066 11.9745L6.44098 15.2949C6.01629 15.7203 5.44191 15.9598 4.84271 15.9614H3.69124C3.62953 15.9618 3.56847 15.9742 3.51141 15.9978L0.979143 13.4491C0.668724 13.1368 0.422479 12.766 0.254475 12.3579C0.0864709 11.9497 0 11.5123 0 11.0705C0 10.6288 0.0864709 10.1913 0.254475 9.78321C0.422479 9.37509 0.668724 9.00428 0.979143 8.69196" fill="#0E0E0E"/>
</svg>
