<svg width="56" height="78" viewBox="0 0 56 78" fill="none" xmlns="http://www.w3.org/2000/svg">
<path d="M6 78V77.1H6.78864V69.9H6V69H11.5395V71.7H10.7509V70.8H9.96221V69.9H8.37543V72.6H9.16407V71.7H9.96221V74.4H9.16407V73.5H8.37543V77.1H9.96221V76.2H10.7509V75.3H11.5395V78H6Z" fill="#B2B2B2"/>
<path d="M15.3651 78V77.1H16.1538V69.9H15.3651V69H20.116V69.9H20.9046V72.6H20.116V74.4H20.9046V78H19.3273V74.4H18.5292V73.5H17.7406V78H15.3651ZM17.7406 72.6H19.3273V69.9H17.7406V72.6Z" fill="#B2B2B2"/>
<path d="M24.7303 78V77.1H25.5189V69.9H24.7303V69H29.4811V69.9H30.2698V72.6H29.4811V74.4H30.2698V78H28.6925V74.4H27.8943V73.5H27.1057V78H24.7303ZM27.1057 72.6H28.6925V69.9H27.1057V72.6Z" fill="#B2B2B2"/>
<path d="M34.0954 77.1V69.9H34.884V69H38.8462V69.9H39.6349V77.1H38.8462V78H34.884V77.1H34.0954ZM35.6822 77.1H38.0576V69.9H35.6822V77.1Z" fill="#B2B2B2"/>
<path d="M43.4605 78V77.1H44.2491V69.9H43.4605V69H48.2114V69.9H49V72.6H48.2114V74.4H49V78H47.4227V74.4H46.6246V73.5H45.8359V78H43.4605ZM45.8359 72.6H47.4227V69.9H45.8359V72.6Z" fill="#B2B2B2"/>
<path d="M46.1 16.9C48.2 12 49.5 5.8 46.6 0C46.6 0 45.5 6.8 40.4 13.1C36.6 11.2 32.3 10.1 27.8 10.1C22.8 10.1 18.1 11.4 14.1 13.7C8.6 7.3 7.4 0 7.4 0C4.4 6.2 6.1 13 8.4 18C3.2 23.1 0 30.1 0 37.9C0 53.3 12.5 65.7 27.8 65.7C43.1 65.7 55.6 53.2 55.6 37.9C55.7 29.5 52 22 46.1 16.9ZM39.4 34.6L49.5 28.9C46.6 38.4 36.2 39.8 36.2 39.8L39.4 34.6ZM19.5 33.7L24.3 40.7C24.3 40.7 10 39.4 6.4 30.1L19.5 33.7ZM40.2 53.7L39 49.1C38.2 52.4 37.1 54.6 36.5 55.7C33.9 56.9 31 57.6 27.8 57.6C24.4 57.6 21.3 56.8 18.6 55.4C18 54.3 17.1 52.2 16.3 49.1L15.2 53.3C11.1 50.2 7.9 45.7 5.7 41.1C10 43.2 14.2 45.6 19.2 47L21 54.1C21.8 51.1 22.7 49.1 23.3 47.9C24.7 48.1 26.2 48.2 27.8 48.2C29.2 48.2 30.6 48.1 31.9 47.9C32.5 49.1 33.4 51.1 34.1 54.1L35.9 47.2C41.3 45.8 45.9 43.3 50.4 41.1C48.2 45.9 44.7 50.6 40.2 53.7Z" fill="#B2B2B2"/>
</svg>
