<svg width="113" height="14" viewBox="0 0 113 14" fill="none" xmlns="http://www.w3.org/2000/svg">
<path d="M0 13.8333V12.5H1.10667V1.83333H0V0.5H5.56V1.83333H6.66667V3.16667H7.77333V11.1667H6.66667V12.5H5.56V13.8333H0ZM3.33333 12.5H4.44V11.1667H5.56V3.16667H4.44V1.83333H3.33333V12.5Z" fill="#00FF00"/>
<path d="M13.1417 13.8333V12.5H14.2483V1.83333H13.1417V0.5H20.915V4.5H19.8083V3.16667H18.7017V1.83333H16.475V5.83333H17.5817V4.5H18.7017V8.5H17.5817V7.16667H16.475V12.5H18.7017V11.1667H19.8083V9.83333H20.915V13.8333H13.1417Z" fill="#00FF00"/>
<path d="M26.2833 12.5V9.83333H28.51V12.5H31.8433V8.5H30.7233V7.16667H28.51V5.83333H27.39V4.5H26.2833V1.83333H27.39V0.5H32.95V1.83333H34.0567V4.5H31.8433V1.83333H28.51V4.5H29.6167V5.83333H31.8433V7.16667H32.95V8.5H34.0567V12.5H32.95V13.8333H27.39V12.5H26.2833Z" fill="#00FF00"/>
<path d="M40.5317 4.5V0.5H47.1983V4.5H46.0917V3.16667H44.985V12.5H46.0917V13.8333H41.6517V12.5H42.7583V3.16667H41.6517V4.5H40.5317Z" fill="#00FF00"/>
<path d="M52.5667 13.8333V4.5H53.6733V3.16667H54.7933V1.83333H55.9V0.5H57.0067V1.83333H58.1267V3.16667H59.2333V4.5H60.34V13.8333H58.1267V8.5H54.7933V13.8333H52.5667ZM54.7933 7.16667H58.1267V4.5H57.0067V3.16667H55.9V4.5H54.7933V7.16667Z" fill="#00FF00"/>
<path d="M65.7083 12.5V1.83333H66.815V0.5H72.375V1.83333H73.4817V11.1667H72.375V12.5H76V13.8333H70.1483H66.815V12.5H65.7083ZM67.935 12.5H69.0417V9.83333H70.1483V11.1667H71.2683V1.83333H67.935V12.5Z" fill="#00FF00"/>
<path d="M78.85 12.5V0.5H81.0767V12.5H84.41V0.5H86.6233V12.5H85.5167V13.8333H79.9567V12.5H78.85Z" fill="#00FF00"/>
<path d="M91.9917 13.8333V12.5H93.0983V1.83333H91.9917V0.5H99.765V4.5H98.6583V3.16667H97.5517V1.83333H95.325V5.83333H96.4317V4.5H97.5517V8.5H96.4317V7.16667H95.325V12.5H97.5517V11.1667H98.6583V9.83333H99.765V13.8333H91.9917Z" fill="#00FF00"/>
<path d="M105.133 12.5V9.83333H107.36V12.5H110.693V8.5H109.573V7.16667H107.36V5.83333H106.24V4.5H105.133V1.83333H106.24V0.5H111.8V1.83333H112.907V4.5H110.693V1.83333H107.36V4.5H108.467V5.83333H110.693V7.16667H111.8V8.5H112.907V12.5H111.8V13.8333H106.24V12.5H105.133Z" fill="#00FF00"/>
</svg>
