<svg width="80" height="16" viewBox="0 0 80 16" fill="none" xmlns="http://www.w3.org/2000/svg">
<path d="M19 9.94778V5.19582H20.3512C20.8255 5.19582 21.228 5.26762 21.5587 5.41123C21.8895 5.55048 22.1571 5.73977 22.3616 5.97911C22.5661 6.2141 22.7141 6.47737 22.8055 6.76893C22.9012 7.05614 22.9491 7.34552 22.9491 7.63708C22.9491 7.99391 22.886 8.31375 22.7598 8.59661C22.6336 8.87946 22.4617 9.12315 22.2441 9.32768C22.0265 9.52785 21.7742 9.68233 21.4869 9.79112C21.2041 9.89556 20.9017 9.94778 20.5796 9.94778H19ZM19.7637 9.21671H20.4426C20.695 9.21671 20.9256 9.1819 21.1345 9.11227C21.3433 9.03829 21.5239 8.93386 21.6762 8.79896C21.8329 8.6597 21.9526 8.48782 22.0352 8.28329C22.1223 8.07876 22.1658 7.84595 22.1658 7.58486C22.1658 7.28895 22.1158 7.03655 22.0157 6.82768C21.9199 6.61445 21.7916 6.44256 21.6305 6.31201C21.4739 6.17711 21.302 6.0792 21.1149 6.01828C20.9278 5.95735 20.7428 5.92689 20.5601 5.92689H19.7637V9.21671Z" fill="#00FF00"/>
<path d="M24.2921 5.19582H27.4448V5.92689H25.0558V7.19321H27.1837V7.93081H25.0558V9.21671H27.5362V9.94778H24.2921V5.19582Z" fill="#00FF00"/>
<path d="M31.4083 6.16188C31.2385 6.07485 31.058 6.00087 30.8665 5.93995C30.675 5.87467 30.4922 5.84204 30.3182 5.84204C30.0832 5.84204 29.8961 5.89426 29.7568 5.99869C29.6219 6.10313 29.5545 6.24674 29.5545 6.4295C29.5545 6.56005 29.6023 6.67537 29.6981 6.77546C29.7938 6.87119 29.9157 6.95605 30.0636 7.03003C30.2116 7.09965 30.3682 7.1671 30.5336 7.23238C30.6772 7.2846 30.8186 7.34769 30.9579 7.42167C31.1015 7.4913 31.2298 7.57833 31.343 7.68277C31.4561 7.78721 31.5453 7.91775 31.6106 8.07441C31.6802 8.22672 31.715 8.41601 31.715 8.6423C31.715 8.89034 31.6519 9.1188 31.5258 9.32768C31.3996 9.5322 31.219 9.69539 30.984 9.81723C30.749 9.93908 30.4618 10 30.1224 10C29.9265 10 29.7329 9.97824 29.5414 9.93473C29.3543 9.89121 29.1759 9.83246 29.0062 9.75849C28.8365 9.68016 28.6798 9.59312 28.5362 9.49739L28.8756 8.90339C28.9801 8.98172 29.0997 9.05352 29.2346 9.1188C29.3695 9.18407 29.5088 9.23629 29.6524 9.27546C29.796 9.31027 29.9309 9.32768 30.0571 9.32768C30.192 9.32768 30.3247 9.30592 30.4553 9.2624C30.5902 9.21889 30.7011 9.14708 30.7882 9.047C30.8795 8.94691 30.9252 8.81419 30.9252 8.64882C30.9252 8.51393 30.8861 8.39861 30.8077 8.30287C30.7294 8.20714 30.6271 8.12446 30.5009 8.05483C30.3791 7.98085 30.2442 7.91558 30.0962 7.85901C29.9483 7.80244 29.796 7.73934 29.6393 7.66971C29.487 7.60009 29.3456 7.51523 29.215 7.41514C29.0845 7.3107 28.9779 7.18451 28.8952 7.03655C28.8125 6.8886 28.7712 6.70583 28.7712 6.48825C28.7712 6.22715 28.8321 6.00087 28.954 5.8094C29.0758 5.61793 29.2433 5.46562 29.4566 5.35248C29.6741 5.23934 29.9244 5.17842 30.2072 5.16971C30.5423 5.16971 30.8273 5.21105 31.0623 5.29373C31.3016 5.37206 31.5127 5.4678 31.6955 5.58094L31.4083 6.16188Z" fill="#00FF00"/>
<path d="M32.6818 5.19582H35.8606V5.92689H34.6335V9.94778H33.8763V5.92689H32.6818V5.19582Z" fill="#00FF00"/>
<path d="M36.2809 9.94778L38.3827 5H38.4284L40.5303 9.94778H39.6556L38.1739 6.19452L38.7222 5.82245L37.0316 9.94778H36.2809ZM37.5995 8.18538H39.2248L39.4859 8.83159H37.371L37.5995 8.18538Z" fill="#00FF00"/>
<path d="M44.6307 9.20366H46.1972V9.94778H43.632L44.6307 9.20366ZM41.1124 7.57833C41.1124 7.24761 41.1755 6.93647 41.3017 6.64491C41.4279 6.35335 41.6019 6.09443 41.8239 5.86815C42.0458 5.64186 42.3025 5.46562 42.5941 5.33943C42.89 5.20888 43.2055 5.1436 43.5406 5.1436C43.8713 5.1436 44.1824 5.20888 44.474 5.33943C44.7699 5.46562 45.0288 5.64186 45.2508 5.86815C45.477 6.09443 45.6533 6.35335 45.7795 6.64491C45.91 6.93647 45.9753 7.24761 45.9753 7.57833C45.9753 7.9134 45.91 8.22672 45.7795 8.51828C45.6533 8.80983 45.477 9.06876 45.2508 9.29504C45.0288 9.51697 44.7699 9.69104 44.474 9.81723C44.1824 9.93908 43.8713 10 43.5406 10C43.2012 10 42.8857 9.93908 42.5941 9.81723C42.3025 9.69104 42.0458 9.51915 41.8239 9.30157C41.6019 9.07963 41.4279 8.82289 41.3017 8.53133C41.1755 8.23542 41.1124 7.91775 41.1124 7.57833ZM41.8957 7.57833C41.8957 7.80896 41.937 8.02654 42.0197 8.23107C42.1067 8.4356 42.2264 8.61619 42.3787 8.77285C42.531 8.92515 42.7072 9.04482 42.9074 9.13185C43.1076 9.21889 43.3252 9.2624 43.5602 9.2624C43.7864 9.2624 43.9975 9.21889 44.1933 9.13185C44.3935 9.04482 44.5676 8.92515 44.7155 8.77285C44.8635 8.62054 44.9788 8.44212 45.0615 8.2376C45.1485 8.03307 45.192 7.81332 45.192 7.57833C45.192 7.34769 45.1485 7.13011 45.0615 6.92559C44.9744 6.72106 44.8569 6.54265 44.709 6.39034C44.561 6.23368 44.387 6.11184 44.1868 6.0248C43.9866 5.93777 43.7712 5.89426 43.5406 5.89426C43.3099 5.89426 43.0945 5.93777 42.8944 6.0248C42.6942 6.11184 42.518 6.23368 42.3656 6.39034C42.2177 6.547 42.1024 6.72759 42.0197 6.93211C41.937 7.13664 41.8957 7.35205 41.8957 7.57833Z" fill="#00FF00"/>
<path d="M48.225 8.2376C48.225 8.42472 48.2728 8.59661 48.3686 8.75326C48.4687 8.90557 48.5992 9.02959 48.7602 9.12533C48.9212 9.21671 49.1018 9.2624 49.302 9.2624C49.5109 9.2624 49.698 9.21671 49.8634 9.12533C50.0287 9.02959 50.1593 8.90557 50.255 8.75326C50.3507 8.59661 50.3986 8.42472 50.3986 8.2376V5.19582H51.1493V8.25718C51.1493 8.60096 51.0666 8.90557 50.9012 9.17102C50.7359 9.43211 50.5139 9.63664 50.2354 9.7846C49.9569 9.9282 49.6458 10 49.302 10C48.9626 10 48.6536 9.9282 48.3751 9.7846C48.0966 9.63664 47.8747 9.43211 47.7093 9.17102C47.5483 8.90557 47.4678 8.60096 47.4678 8.25718V5.19582H48.225V8.2376Z" fill="#00FF00"/>
<path d="M52.7041 5.19582H55.8569V5.92689H53.4679V7.19321H55.5958V7.93081H53.4679V9.21671H55.9483V9.94778H52.7041V5.19582Z" fill="#00FF00"/>
<path d="M59.8204 6.16188C59.6506 6.07485 59.4701 6.00087 59.2786 5.93995C59.0871 5.87467 58.9043 5.84204 58.7303 5.84204C58.4953 5.84204 58.3082 5.89426 58.1689 5.99869C58.034 6.10313 57.9666 6.24674 57.9666 6.4295C57.9666 6.56005 58.0144 6.67537 58.1102 6.77546C58.2059 6.87119 58.3278 6.95605 58.4757 7.03003C58.6237 7.09965 58.7803 7.1671 58.9457 7.23238C59.0893 7.2846 59.2307 7.34769 59.37 7.42167C59.5136 7.4913 59.6419 7.57833 59.7551 7.68277C59.8682 7.78721 59.9574 7.91775 60.0227 8.07441C60.0923 8.22672 60.1271 8.41601 60.1271 8.6423C60.1271 8.89034 60.064 9.1188 59.9378 9.32768C59.8117 9.5322 59.6311 9.69539 59.3961 9.81723C59.1611 9.93908 58.8739 10 58.5345 10C58.3386 10 58.145 9.97824 57.9535 9.93473C57.7664 9.89121 57.588 9.83246 57.4183 9.75849C57.2486 9.68016 57.0919 9.59312 56.9483 9.49739L57.2877 8.90339C57.3922 8.98172 57.5118 9.05352 57.6467 9.1188C57.7816 9.18407 57.9209 9.23629 58.0645 9.27546C58.2081 9.31027 58.343 9.32768 58.4692 9.32768C58.6041 9.32768 58.7368 9.30592 58.8674 9.2624C59.0023 9.21889 59.1132 9.14708 59.2003 9.047C59.2916 8.94691 59.3373 8.81419 59.3373 8.64882C59.3373 8.51393 59.2982 8.39861 59.2198 8.30287C59.1415 8.20714 59.0392 8.12446 58.913 8.05483C58.7912 7.98085 58.6563 7.91558 58.5083 7.85901C58.3604 7.80244 58.2081 7.73934 58.0514 7.66971C57.8991 7.60009 57.7577 7.51523 57.6271 7.41514C57.4966 7.3107 57.39 7.18451 57.3073 7.03655C57.2246 6.8886 57.1833 6.70583 57.1833 6.48825C57.1833 6.22715 57.2442 6.00087 57.366 5.8094C57.4879 5.61793 57.6554 5.46562 57.8687 5.35248C58.0862 5.23934 58.3365 5.17842 58.6193 5.16971C58.9544 5.16971 59.2394 5.21105 59.4744 5.29373C59.7137 5.37206 59.9248 5.4678 60.1076 5.58094L59.8204 6.16188Z" fill="#00FF00"/>
</svg>
