<svg width="23" height="23" viewBox="0 0 23 23" fill="none" xmlns="http://www.w3.org/2000/svg">
<path d="M11.5 23L10.3212 21.839C8.29403 19.8074 6.61806 18.0548 5.29333 16.5813C3.96861 15.1078 2.91333 13.7906 2.1275 12.6296C1.34167 11.4686 0.790625 10.4175 0.474375 9.47612C0.158125 8.53479 0 7.58299 0 6.62074C0 4.73482 0.579792 3.15989 1.73937 1.89595C2.89896 0.631982 4.33167 0 6.0375 0C7.13 0 8.14104 0.282401 9.07063 0.847203C10.0002 1.41201 10.81 2.22783 11.5 3.29468C12.305 2.16508 13.1579 1.33356 14.0588 0.800136C14.9596 0.266712 15.9275 0 16.9625 0C18.6683 0 20.101 0.631982 21.2606 1.89595C22.4202 3.15989 23 4.73482 23 6.62074C23 7.58299 22.8419 8.53479 22.5256 9.47612C22.2094 10.4175 21.6583 11.4686 20.8725 12.6296C20.0867 13.7906 19.0314 15.1078 17.7067 16.5813C16.3819 18.0548 14.706 19.8074 12.6788 21.839L11.5 23ZM11.5 20.5211C13.4404 18.5758 15.0371 16.9076 16.2903 15.5164C17.5434 14.1253 18.539 12.9068 19.2769 11.8608C20.0148 10.8149 20.5323 9.88263 20.8294 9.06398C21.1265 8.24531 21.275 7.43241 21.275 6.62529C21.275 5.24163 20.8725 4.10528 20.0675 3.21623C19.2625 2.32719 18.2297 1.88267 16.969 1.88267C15.9814 1.88267 15.0674 2.21214 14.2269 2.87108C13.3865 3.53001 12.7075 4.45566 12.19 5.64802H10.7812C10.2829 4.47658 9.61352 3.55616 8.77306 2.88677C7.93259 2.21737 7.01857 1.88267 6.03103 1.88267C4.77034 1.88267 3.7375 2.32719 2.9325 3.21623C2.1275 4.10528 1.725 5.24341 1.725 6.63065C1.725 7.43987 1.87354 8.25762 2.17062 9.0839C2.46771 9.91019 2.98521 10.8515 3.72312 11.9079C4.46104 12.9643 5.4625 14.1828 6.7275 15.5634C7.9925 16.9441 9.58333 18.5966 11.5 20.5211Z" fill="#F7F7F7"/>
</svg>
