<svg width="23" height="22" viewBox="0 0 23 22" fill="none" xmlns="http://www.w3.org/2000/svg">
<path d="M11.656 10.2079C10.243 10.2079 9.07813 9.74952 8.1613 8.8327C7.24448 7.91587 6.78607 6.74862 6.78607 5.33095C6.78607 3.91324 7.24448 2.74833 8.1613 1.8362C9.07813 0.924099 10.243 0.468048 11.656 0.468048C13.069 0.468048 14.2339 0.924099 15.1507 1.8362C16.0675 2.74833 16.526 3.91324 16.526 5.33095C16.526 6.74862 16.0675 7.91587 15.1507 8.8327C14.2339 9.74952 13.069 10.2079 11.656 10.2079ZM0.64563 21.4103V18.6239C0.64563 17.8353 0.854546 17.1483 1.27238 16.563C1.69021 15.9776 2.23321 15.5278 2.90137 15.2135C4.44657 14.5265 5.93611 14.0089 7.36998 13.6607C8.80388 13.3126 10.2324 13.1385 11.6556 13.1385C13.0788 13.1385 14.5037 13.3163 15.9303 13.672C17.3569 14.0277 18.8398 14.5449 20.3789 15.2235C21.0731 15.537 21.6279 15.9849 22.0433 16.5673C22.4587 17.1498 22.6664 17.8353 22.6664 18.6239V21.4103H0.64563ZM2.31129 19.7446H21.0007V18.6239C21.0007 18.2418 20.8798 17.8757 20.6379 17.5256C20.3961 17.1756 20.0804 16.9008 19.6908 16.7013C18.2472 15.9992 16.8855 15.5075 15.6058 15.2262C14.3261 14.9448 13.0095 14.8041 11.656 14.8041C10.3025 14.8041 8.97602 14.9448 7.67655 15.2262C6.37708 15.5075 5.01778 15.9992 3.59866 16.7013C3.20906 16.9008 2.8971 17.1756 2.66277 17.5256C2.42845 17.8757 2.31129 18.2418 2.31129 18.6239V19.7446ZM11.656 8.54232C12.5726 8.54232 13.3358 8.2374 13.9456 7.62757C14.5554 7.01777 14.8603 6.25457 14.8603 5.33799C14.8603 4.42141 14.5554 3.65822 13.9456 3.04841C13.3358 2.43861 12.5726 2.1337 11.656 2.1337C10.7394 2.1337 9.97624 2.43861 9.36643 3.04841C8.75662 3.65822 8.45172 4.42141 8.45172 5.33799C8.45172 6.25457 8.75662 7.01777 9.36643 7.62757C9.97624 8.2374 10.7394 8.54232 11.656 8.54232Z" fill="#0E0E0E"/>
</svg>
