<svg width="27" height="27" viewBox="0 0 27 27" fill="none" xmlns="http://www.w3.org/2000/svg">
<path fill-rule="evenodd" clip-rule="evenodd" d="M13.7529 10.8351C12.3973 10.8351 11.2965 11.9359 11.2965 13.2914C11.2965 14.6469 12.3973 15.7477 13.7529 15.7477C15.1084 15.7477 16.2092 14.6469 16.2092 13.2914C16.2092 11.945 15.1084 10.8351 13.7529 10.8351Z" fill="url(#paint0_linear_13_82)"/>
<path fill-rule="evenodd" clip-rule="evenodd" d="M20.0301 0H7.34826C3.51823 0 0.388702 3.12953 0.388702 6.95956V19.6414C0.388702 23.4715 3.51823 26.601 7.34826 26.601H20.0301C23.8602 26.601 26.9897 23.4715 26.9897 19.6414V6.95956C26.9897 3.12953 23.8602 0 20.0301 0ZM21.4857 16.4118C21.4857 18.9955 19.3842 21.097 16.8005 21.097H10.5779C7.99418 21.097 5.89267 18.9955 5.89267 16.4118V10.1892C5.89267 7.60548 7.99418 5.50396 10.5779 5.50396H16.8005C19.3842 5.50396 21.4857 7.60548 21.4857 10.1892V16.4118Z" fill="url(#paint1_linear_13_82)"/>
<path fill-rule="evenodd" clip-rule="evenodd" d="M16.8005 6.96869H10.5778C8.80383 6.96869 7.35733 8.41518 7.35733 10.1892V16.4119C7.35733 18.1859 8.80383 19.6324 10.5778 19.6324H16.8005C18.5745 19.6324 20.021 18.1859 20.021 16.4119V10.1892C20.021 8.40609 18.5745 6.96869 16.8005 6.96869ZM13.7528 17.1397C11.6331 17.1397 9.91372 15.4202 9.91372 13.3005C9.91372 11.1808 11.6331 9.46139 13.7528 9.46139C15.8726 9.46139 17.592 11.1808 17.592 13.3005C17.592 15.4202 15.8635 17.1397 13.7528 17.1397ZM17.8103 10.1164C17.31 10.1164 16.8915 9.70702 16.8915 9.19757C16.8915 8.6972 17.3009 8.27872 17.8103 8.27872C18.3198 8.27872 18.7292 8.68811 18.7292 9.19757C18.7292 9.70702 18.3198 10.1164 17.8103 10.1164Z" fill="url(#paint2_linear_13_82)"/>
<defs>
<linearGradient id="paint0_linear_13_82" x1="13.6892" y1="0" x2="13.6892" y2="26.601" gradientUnits="userSpaceOnUse">
<stop stop-color="#FF00A4"/>
<stop offset="1" stop-color="#CA0082"/>
</linearGradient>
<linearGradient id="paint1_linear_13_82" x1="13.6892" y1="0" x2="13.6892" y2="26.601" gradientUnits="userSpaceOnUse">
<stop stop-color="#FF00A4"/>
<stop offset="1" stop-color="#CA0082"/>
</linearGradient>
<linearGradient id="paint2_linear_13_82" x1="13.6892" y1="0" x2="13.6892" y2="26.601" gradientUnits="userSpaceOnUse">
<stop stop-color="#FF00A4"/>
<stop offset="1" stop-color="#CA0082"/>
</linearGradient>
</defs>
</svg>
