<svg width="325" height="17" viewBox="0 0 325 17" fill="none" xmlns="http://www.w3.org/2000/svg">
<path d="M0 16.5V14.9H1.328V2.1H0V0.5H8V2.1H9.328V6.9H8V8.5H4V14.9H5.328V16.5H0ZM4 6.9H6.672V2.1H4V6.9Z" fill="#00FF00"/>
<path d="M15.77 16.5V14.9H17.098V2.1H15.77V0.5H23.77V2.1H25.098V6.9H23.77V10.1H25.098V16.5H22.442V10.1H21.098V8.5H19.77V16.5H15.77ZM19.77 6.9H22.442V2.1H19.77V6.9Z" fill="#00FF00"/>
<path d="M31.54 14.9V2.1H32.868V0.5H39.54V2.1H40.868V14.9H39.54V16.5H32.868V14.9H31.54ZM34.212 14.9H38.212V2.1H34.212V14.9Z" fill="#00FF00"/>
<path d="M47.31 16.5V14.9H48.638V2.1H47.31V0.5H53.982V2.1H55.31V3.7H56.638V13.3H55.31V14.9H53.982V16.5H47.31ZM51.31 14.9H52.638V13.3H53.982V3.7H52.638V2.1H51.31V14.9Z" fill="#00FF00"/>
<path d="M63.08 14.9V0.5H65.752V14.9H69.752V0.5H72.408V14.9H71.08V16.5H64.408V14.9H63.08Z" fill="#00FF00"/>
<path d="M80.178 5.3V0.5H88.178V5.3H86.85V3.7H85.522V14.9H86.85V16.5H81.522V14.9H82.85V3.7H81.522V5.3H80.178Z" fill="#00FF00"/>
<path d="M94.62 14.9V2.1H95.948V0.5H102.62V2.1H103.948V14.9H102.62V16.5H95.948V14.9H94.62ZM97.292 14.9H101.292V2.1H97.292V14.9Z" fill="#00FF00"/>
<path d="M110.39 14.9V11.7H113.062V14.9H117.062V10.1H115.718V8.5H113.062V6.9H111.718V5.3H110.39V2.1H111.718V0.5H118.39V2.1H119.718V5.3H117.062V2.1H113.062V5.3H114.39V6.9H117.062V8.5H118.39V10.1H119.718V14.9H118.39V16.5H111.718V14.9H110.39Z" fill="#00FF00"/>
<path d="M141.93 16.5V14.9H143.258V2.1H141.93V0.5H149.93V2.1H151.258V6.9H149.93V10.1H151.258V16.5H148.602V10.1H147.258V8.5H145.93V16.5H141.93ZM145.93 6.9H148.602V2.1H145.93V6.9Z" fill="#00FF00"/>
<path d="M157.7 16.5V14.9H159.028V2.1H157.7V0.5H167.028V5.3H165.7V3.7H164.372V2.1H161.7V6.9H163.028V5.3H164.372V10.1H163.028V8.5H161.7V14.9H164.372V13.3H165.7V11.7H167.028V16.5H157.7Z" fill="#00FF00"/>
<path d="M173.47 16.5V14.9H174.798V2.1H173.47V0.5H178.798V2.1H177.47V14.9H180.142V13.3H181.47V11.7H182.798V16.5H173.47Z" fill="#00FF00"/>
<path d="M189.24 16.5V5.3H190.568V3.7H191.912V2.1H193.24V0.5H194.568V2.1H195.912V3.7H197.24V5.3H198.568V16.5H195.912V10.1H191.912V16.5H189.24ZM191.912 8.5H195.912V5.3H194.568V3.7H193.24V5.3H191.912V8.5Z" fill="#00FF00"/>
<path d="M205.01 13.3V3.7H206.338V2.1H207.682V0.5H213.01V2.1H214.338V5.3H213.01V3.7H211.682V2.1H209.01V3.7H207.682V13.3H209.01V14.9H211.682V13.3H213.01V11.7H214.338V14.9H213.01V16.5H207.682V14.9H206.338V13.3H205.01Z" fill="#00FF00"/>
<path d="M227.452 14.9H228.78V16.5H223.452V14.9H224.78V2.1H223.452V0.5H228.78V2.1H227.452V14.9Z" fill="#00FF00"/>
<path d="M236.55 14.9V2.1H237.878V0.5H244.55V2.1H245.878V14.9H244.55V16.5H237.878V14.9H236.55ZM239.222 14.9H243.222V2.1H239.222V14.9Z" fill="#00FF00"/>
<path d="M252.32 16.5V0.5H254.992V2.1H256.32V3.7H257.648V5.3H258.992V0.5H261.648V16.5H258.992V10.1H257.648V8.5H256.32V6.9H254.992V16.5H252.32Z" fill="#00FF00"/>
<path d="M268.09 16.5V5.3H269.418V3.7H270.762V2.1H272.09V0.5H273.418V2.1H274.762V3.7H276.09V5.3H277.418V16.5H274.762V10.1H270.762V16.5H268.09ZM270.762 8.5H274.762V5.3H273.418V3.7H272.09V5.3H270.762V8.5Z" fill="#00FF00"/>
<path d="M283.86 16.5V14.9H285.188V2.1H283.86V0.5H290.532V2.1H291.86V3.7H293.188V13.3H291.86V14.9H290.532V16.5H283.86ZM287.86 14.9H289.188V13.3H290.532V3.7H289.188V2.1H287.86V14.9Z" fill="#00FF00"/>
<path d="M299.63 14.9V2.1H300.958V0.5H307.63V2.1H308.958V14.9H307.63V16.5H300.958V14.9H299.63ZM302.302 14.9H306.302V2.1H302.302V14.9Z" fill="#00FF00"/>
<path d="M315.4 14.9V11.7H318.072V14.9H322.072V10.1H320.728V8.5H318.072V6.9H316.728V5.3H315.4V2.1H316.728V0.5H323.4V2.1H324.728V5.3H322.072V2.1H318.072V5.3H319.4V6.9H322.072V8.5H323.4V10.1H324.728V14.9H323.4V16.5H316.728V14.9H315.4Z" fill="#00FF00"/>
</svg>
