<svg width="64" height="16" viewBox="0 0 64 16" fill="none" xmlns="http://www.w3.org/2000/svg">
<path d="M20.7526 6.97066L20.7334 7.20663L20.8355 7.05995L22.5765 5.19133H23.5395L21.6199 7.21939L23.6097 9.83418H22.6658L21.0778 7.69133L20.7526 8.0102V9.83418H20V5.19133H20.7526V6.97066Z" fill="#00FF00"/>
<path d="M24.2047 7.51913C24.2047 7.196 24.2663 6.89201 24.3896 6.60714C24.5129 6.32228 24.683 6.0693 24.8999 5.84821C25.1167 5.62713 25.3675 5.45493 25.6524 5.33163C25.9415 5.20408 26.2498 5.14031 26.5771 5.14031C26.9003 5.14031 27.2043 5.20408 27.4891 5.33163C27.7783 5.45493 28.0312 5.62713 28.2481 5.84821C28.4692 6.0693 28.6413 6.32228 28.7646 6.60714C28.8922 6.89201 28.956 7.196 28.956 7.51913C28.956 7.84651 28.8922 8.15264 28.7646 8.4375C28.6413 8.72236 28.4692 8.97534 28.2481 9.19643C28.0312 9.41326 27.7783 9.58333 27.4891 9.70663C27.2043 9.82568 26.9003 9.8852 26.5771 9.8852C26.2455 9.8852 25.9373 9.82568 25.6524 9.70663C25.3675 9.58333 25.1167 9.41539 24.8999 9.20281C24.683 8.98597 24.5129 8.73512 24.3896 8.45025C24.2663 8.16114 24.2047 7.85077 24.2047 7.51913ZM24.97 7.51913C24.97 7.74872 25.0104 7.96344 25.0912 8.16327C25.1762 8.3631 25.2931 8.53954 25.4419 8.6926C25.5908 8.84141 25.7629 8.95833 25.9585 9.04337C26.1541 9.1284 26.3667 9.17092 26.5963 9.17092C26.8174 9.17092 27.0236 9.1284 27.2149 9.04337C27.4105 8.95833 27.5805 8.84141 27.7251 8.6926C27.8697 8.53954 27.9823 8.3631 28.0631 8.16327C28.1482 7.96344 28.1907 7.74872 28.1907 7.51913C28.1907 7.28529 28.1482 7.06845 28.0631 6.86862C27.9781 6.66879 27.8633 6.49235 27.7187 6.33929C27.5742 6.18622 27.4041 6.06718 27.2085 5.98214C27.0129 5.89711 26.8025 5.85459 26.5771 5.85459C26.3518 5.85459 26.1413 5.89711 25.9458 5.98214C25.7502 6.06718 25.578 6.18622 25.4292 6.33929C25.2846 6.49235 25.172 6.67092 25.0912 6.875C25.0104 7.07483 24.97 7.28954 24.97 7.51913Z" fill="#00FF00"/>
<path d="M34.348 10L30.7829 6.54337L30.9998 6.63265L31.0189 9.83418H30.2664V5.03189H30.2983L33.8123 8.48852L33.6401 8.4375L33.6273 5.19133H34.3671V10H34.348Z" fill="#00FF00"/>
<path d="M35.9663 9.83418V5.19133H37.2865C37.7499 5.19133 38.1432 5.26148 38.4663 5.40179C38.7894 5.53784 39.0509 5.72279 39.2507 5.95663C39.4506 6.18622 39.5951 6.44345 39.6844 6.72832C39.778 7.00893 39.8247 7.29167 39.8247 7.57653C39.8247 7.92517 39.7631 8.23767 39.6398 8.51403C39.5165 8.79039 39.3485 9.02849 39.1359 9.22832C38.9234 9.42389 38.6768 9.57483 38.3961 9.68112C38.1198 9.78316 37.8243 9.83418 37.5097 9.83418H35.9663ZM36.7125 9.1199H37.3757C37.6223 9.1199 37.8477 9.08588 38.0518 9.01786C38.2558 8.94558 38.4323 8.84354 38.5811 8.71173C38.7342 8.57568 38.8511 8.40774 38.9319 8.20791C39.0169 8.00808 39.0594 7.78061 39.0594 7.52551C39.0594 7.23639 39.0105 6.9898 38.9127 6.78571C38.8192 6.57738 38.6938 6.40944 38.5365 6.28189C38.3834 6.15008 38.2154 6.05442 38.0326 5.9949C37.8498 5.93537 37.6691 5.90561 37.4905 5.90561H36.7125V9.1199Z" fill="#00FF00"/>
<path d="M40.3719 9.83418L42.4255 5H42.4701L44.5237 9.83418H43.6691L42.2214 6.16709L42.7571 5.80357L41.1053 9.83418H40.3719ZM41.6602 8.11224H43.2482L43.5033 8.74362H41.4369L41.6602 8.11224Z" fill="#00FF00"/>
</svg>
