<svg width="27" height="27" viewBox="0 0 27 27" fill="none" xmlns="http://www.w3.org/2000/svg">
<path fill-rule="evenodd" clip-rule="evenodd" d="M26.679 6.95956C26.679 3.12953 23.5494 0 19.7194 0H7.03754C3.20751 0 0.0779724 3.12953 0.0779724 6.95956V19.6414C0.0779724 23.4715 3.20751 26.601 7.03754 26.601H19.7194C23.5494 26.601 26.679 23.4715 26.679 19.6414V6.95956ZM18.1819 15.5931C16.5262 17.64 13.8515 17.7764 12.6143 16.521C12.5233 16.4209 12.4414 16.3118 12.3505 16.1935C12.3323 16.239 12.3232 16.2754 12.3141 16.3208C11.7227 18.6407 11.659 19.1593 11.0495 20.2419C10.7584 20.7513 10.4309 21.2426 10.067 21.7065C10.0215 21.7611 9.98511 21.8248 9.90323 21.8066C9.81226 21.7884 9.80317 21.7065 9.79407 21.6338C9.694 20.9242 9.63941 20.2237 9.66671 19.505C9.694 18.577 9.81226 18.2586 11.0131 13.2277C11.0313 13.1549 11.0131 13.0912 10.9858 13.0185C10.7038 12.2452 10.6401 11.4628 10.8949 10.6622C11.4407 8.9428 13.3785 8.81544 13.7242 10.2346C13.9334 11.108 13.3785 12.2543 12.9509 13.9555C12.5961 15.3565 14.2427 16.3481 15.6528 15.3292C16.9538 14.3922 17.4541 12.136 17.3541 10.5349C17.163 7.35075 13.6696 6.65934 11.4498 7.68736C8.91161 8.86093 8.32937 12.0177 9.47565 13.4551C9.62121 13.6371 9.73038 13.7463 9.68489 13.9373C9.61211 14.2284 9.54844 14.5195 9.46656 14.8016C9.40288 15.0108 9.23003 15.0927 9.01169 15.0017C8.58411 14.8289 8.2384 14.565 7.94729 14.2102C6.97386 13.0003 6.69183 10.6167 7.98367 8.5971C9.41197 6.35913 12.0684 5.44938 14.4884 5.7223C17.3814 6.04981 19.219 8.03306 19.5556 10.2801C19.7285 11.2809 19.6193 13.8099 18.1819 15.5931Z" fill="url(#paint0_linear_12_69)"/>
<defs>
<linearGradient id="paint0_linear_12_69" x1="13.3785" y1="0" x2="13.3785" y2="26.601" gradientUnits="userSpaceOnUse">
<stop stop-color="#FF00A4"/>
<stop offset="1" stop-color="#CA0082"/>
</linearGradient>
</defs>
</svg>
