<svg width="73" height="16" viewBox="0 0 73 16" fill="none" xmlns="http://www.w3.org/2000/svg">
<path d="M0 16V14.4H1.328V1.6H0V0H4V6.4H5.328V4.8H6.672V0H9.328V4.8H8V6.4H6.672V9.6H8V11.2H9.328V16H6.672V11.2H5.328V9.6H4V16H0Z" fill="#00FF00"/>
<path d="M15.77 14.4V1.6H17.098V0H23.77V1.6H25.098V14.4H23.77V16H17.098V14.4H15.77ZM18.442 14.4H22.442V1.6H18.442V14.4Z" fill="#00FF00"/>
<path d="M31.54 16V0H34.212V1.6H35.54V3.2H36.868V4.8H38.212V0H40.868V16H38.212V9.6H36.868V8H35.54V6.4H34.212V16H31.54Z" fill="#00FF00"/>
<path d="M47.31 16V14.4H48.638V1.6H47.31V0H53.982V1.6H55.31V3.2H56.638V12.8H55.31V14.4H53.982V16H47.31ZM51.31 14.4H52.638V12.8H53.982V3.2H52.638V1.6H51.31V14.4Z" fill="#00FF00"/>
<path d="M63.08 16V4.8H64.408V3.2H65.752V1.6H67.08V0H68.408V1.6H69.752V3.2H71.08V4.8H72.408V16H69.752V9.6H65.752V16H63.08ZM65.752 8H69.752V4.8H68.408V3.2H67.08V4.8H65.752V8Z" fill="#00FF00"/>
</svg>
