<svg width="136" height="16" viewBox="0 0 136 16" fill="none" xmlns="http://www.w3.org/2000/svg">
<path d="M0 14.4V11.2H2.672V14.4H6.672V9.6H5.328V8H2.672V6.4H1.328V4.8H0V1.6H1.328V0H8V1.6H9.328V4.8H6.672V1.6H2.672V4.8H4V6.4H6.672V8H8V9.6H9.328V14.4H8V16H1.328V14.4H0Z" fill="#00FF00"/>
<path d="M15.77 14.4V1.6H17.098V0H23.77V1.6H25.098V14.4H23.77V16H17.098V14.4H15.77ZM18.442 14.4H22.442V1.6H18.442V14.4Z" fill="#00FF00"/>
<path d="M31.54 16V14.4H32.868V1.6H31.54V0H39.54V1.6H40.868V6.4H39.54V8H40.868V14.4H39.54V16H31.54ZM35.54 14.4H38.212V8H35.54V14.4ZM35.54 6.4H38.212V1.6H35.54V6.4Z" fill="#00FF00"/>
<path d="M47.31 16V14.4H48.638V1.6H47.31V0H55.31V1.6H56.638V6.4H55.31V9.6H56.638V16H53.982V9.6H52.638V8H51.31V16H47.31ZM51.31 6.4H53.982V1.6H51.31V6.4Z" fill="#00FF00"/>
<path d="M63.08 16V14.4H64.408V1.6H63.08V0H72.408V4.8H71.08V3.2H69.752V1.6H67.08V6.4H68.408V4.8H69.752V9.6H68.408V8H67.08V14.4H69.752V12.8H71.08V11.2H72.408V16H63.08Z" fill="#00FF00"/>
<path d="M94.62 16V0H97.292V1.6H98.62V3.2H99.948V4.8H101.292V0H103.948V16H101.292V9.6H99.948V8H98.62V6.4H97.292V16H94.62Z" fill="#00FF00"/>
<path d="M110.39 14.4V3.4H111.718V1.8H118.39V3.4H119.718V14.4H118.39V16H111.718V14.4H110.39ZM113.89 1V0H116.562V1H115.218H113.89ZM113.062 14.4H117.062V3.4H113.062V14.4Z" fill="#00FF00"/>
<path d="M126.16 14.4V11.2H128.832V14.4H132.832V9.6H131.488V8H128.832V6.4H127.488V4.8H126.16V1.6H127.488V0H134.16V1.6H135.488V4.8H132.832V1.6H128.832V4.8H130.16V6.4H132.832V8H134.16V9.6H135.488V14.4H134.16V16H127.488V14.4H126.16Z" fill="#00FF00"/>
</svg>
